<svg width="864" height="365" viewBox="0 0 864 365" fill="none" xmlns="http://www.w3.org/2000/svg">
<g clip-path="url(#clip0_40_1022)">
<path d="M314.963 110.223H55.9048V195.268H65.7179V217.511L87.96 195.268H314.963V110.223Z" fill="#F0F0F0"/>
<path d="M307.767 118.505H63.1011V186.541H307.767V118.505Z" fill="white"/>
<path d="M202.539 139.022H84.7383V142.597H202.539V139.022Z" fill="#F0F0F0"/>
<path d="M290.055 151.39H84.7383V154.965H290.055V151.39Z" fill="#F0F0F0"/>
<path d="M289.854 163.756H84.7383V167.331H289.854V163.756Z" fill="#F0F0F0"/>
<path d="M524.031 351.07C524.031 351.07 525.518 319.911 556.003 323.533Z" fill="#F0F0F0"/>
<path d="M515.418 321.418C523.844 321.418 530.675 314.587 530.675 306.161C530.675 297.735 523.844 290.904 515.418 290.904C506.992 290.904 500.161 297.735 500.161 306.161C500.161 314.587 506.992 321.418 515.418 321.418Z" fill="#F0F0F0"/>
<path d="M517.242 331.853H512.936V362H517.242V331.853Z" fill="#F0F0F0"/>
<path d="M666.929 303.37C735.024 303.37 790.226 248.168 790.226 180.074C790.226 111.979 735.024 56.7769 666.929 56.7769C598.835 56.7769 543.633 111.979 543.633 180.074C543.633 248.168 598.835 303.37 666.929 303.37Z" fill="#008BFD"/>
<path d="M589.307 189.971C592.369 186.305 596.199 183.356 600.525 181.332C604.852 179.309 609.571 178.26 614.347 178.26C619.124 178.26 623.842 179.309 628.169 181.332C632.496 183.356 636.326 186.305 639.388 189.971C644.576 185.018 648.178 178.638 649.74 171.638C651.303 164.638 650.754 157.332 648.164 150.644C645.573 143.956 641.058 138.186 635.188 134.064C629.319 129.942 622.359 127.653 615.189 127.486C608.018 127.32 600.96 129.284 594.905 133.129C588.851 136.974 584.073 142.528 581.175 149.089C578.277 155.65 577.39 162.923 578.626 169.988C579.861 177.053 583.164 183.593 588.117 188.781C588.504 189.187 588.901 189.583 589.307 189.971Z" fill="white"/>
<path d="M687.219 189.971C690.281 186.305 694.111 183.356 698.437 181.332C702.764 179.309 707.483 178.26 712.259 178.26C717.036 178.26 721.754 179.309 726.081 181.332C730.408 183.356 734.237 186.305 737.3 189.971C742.487 185.018 746.09 178.638 747.652 171.638C749.214 164.638 748.666 157.332 746.075 150.644C743.485 143.956 738.97 138.186 733.1 134.064C727.231 129.942 720.271 127.653 713.1 127.486C705.93 127.32 698.871 129.284 692.817 133.129C686.763 136.974 681.985 142.528 679.087 149.089C676.189 155.65 675.302 162.923 676.538 169.988C677.773 177.053 681.076 183.593 686.029 188.781C686.416 189.187 686.813 189.583 687.219 189.971Z" fill="white"/>
<path d="M601.977 163.867C608.866 163.867 614.451 158.282 614.451 151.392C614.451 144.503 608.866 138.918 601.977 138.918C595.087 138.918 589.502 144.503 589.502 151.392C589.502 158.282 595.087 163.867 601.977 163.867Z" fill="#008BFD"/>
<path d="M699.885 163.867C706.774 163.867 712.359 158.282 712.359 151.392C712.359 144.503 706.774 138.918 699.885 138.918C692.996 138.918 687.411 144.503 687.411 151.392C687.411 158.282 692.996 163.867 699.885 163.867Z" fill="#008BFD"/>
<path d="M578.083 225.403C586.095 225.403 592.589 218.909 592.589 210.898C592.589 202.886 586.095 196.392 578.083 196.392C570.072 196.392 563.578 202.886 563.578 210.898C563.578 218.909 570.072 225.403 578.083 225.403Z" fill="#FFB163"/>
<path d="M744.897 225.403C752.908 225.403 759.402 218.909 759.402 210.898C759.402 202.886 752.908 196.392 744.897 196.392C736.885 196.392 730.391 202.886 730.391 210.898C730.391 218.909 736.885 225.403 744.897 225.403Z" fill="#FFB163"/>
<path d="M661.49 181.886L650.611 229.029L668.742 210.898L661.49 181.886Z" fill="#FFB163"/>
<path d="M717.39 363.205L705.038 352.839L705.326 363.205H701.49L701.183 352.244L684.507 363.205H677.526L701.059 347.737L700.147 315.258L699.466 290.728L703.293 290.623L703.984 315.258L704.894 347.708L723.354 363.205H717.39Z" fill="#008BFD"/>
<path d="M659.363 363.205L647.012 352.839L647.3 363.205H643.474L643.167 352.244L626.49 363.205H619.509L643.033 347.737L642.122 315.258L641.441 290.728L645.276 290.623L645.967 315.258L646.868 347.708L665.328 363.205H659.363Z" fill="#008BFD"/>
<path d="M668.743 47.711C665.359 47.711 662.375 50.339 660.38 54.3755C658.621 48.3058 654.926 44.0847 650.611 44.0847C650.317 44.1138 650.027 44.1627 649.74 44.231C648.081 37.7505 644.226 33.2056 639.732 33.2056C633.723 33.2056 628.853 41.3236 628.853 51.3374C628.853 61.3513 633.723 69.4693 639.732 69.4693C640.025 69.4402 640.316 69.3913 640.603 69.323C642.261 75.8035 646.116 80.3484 650.611 80.3484C653.994 80.3484 656.978 77.7204 658.974 73.684C660.732 79.7537 664.427 83.9747 668.743 83.9747C674.751 83.9747 679.622 75.8567 679.622 65.8429C679.622 55.829 674.751 47.711 668.743 47.711Z" fill="#008BFD"/>
<path d="M550.682 183.91L482.761 172.893C479.339 172.338 475.854 171.782 472.42 172.265C468.986 172.748 465.549 174.439 463.799 177.432C462.958 178.871 462.55 180.521 462.624 182.186C462.699 183.851 463.253 185.459 464.219 186.816C465.186 188.174 466.524 189.223 468.072 189.839C469.621 190.454 471.314 190.609 472.949 190.285C469.241 190.165 465.345 190.085 462.055 191.799C458.765 193.512 456.435 197.674 458.039 201.019C458.521 201.942 459.172 202.766 459.958 203.448C462.434 205.667 465.488 207.14 468.766 207.696C472.044 208.252 475.412 207.868 478.481 206.589C475.981 210.175 471.019 210.707 466.727 211.538C462.435 212.368 457.474 214.796 457.314 219.164C457.135 224.073 462.977 226.682 467.786 227.681C493.466 232.965 520.121 230.793 544.607 221.42C547.358 220.473 549.963 219.143 552.344 217.469C555.012 215.443 557.04 212.691 558.185 209.542C559.329 206.393 559.542 202.981 558.798 199.714C558.054 196.447 556.384 193.464 553.988 191.121C551.593 188.779 548.573 187.177 545.29 186.506" fill="#008BFD"/>
<path d="M843.849 239.582C832.639 215.881 814.883 195.882 792.676 181.945C790.266 180.315 787.637 179.032 784.869 178.135C781.646 177.22 778.227 177.254 775.022 178.231C771.817 179.209 768.962 181.089 766.798 183.647C764.635 186.205 763.254 189.333 762.821 192.655C762.389 195.978 762.923 199.355 764.36 202.381L759.045 199.632C769.716 219.934 780.387 240.237 791.059 260.539C792.672 263.608 794.322 266.728 796.772 269.182C799.221 271.636 802.638 273.367 806.082 272.967C807.45 272.814 808.76 272.335 809.904 271.57C811.048 270.805 811.991 269.777 812.655 268.572C813.319 267.367 813.685 266.02 813.721 264.645C813.756 263.269 813.462 261.905 812.861 260.667C814.359 262.778 816.329 264.511 818.613 265.727C821.96 267.327 826.687 266.688 828.396 263.396C828.844 262.456 829.112 261.44 829.184 260.402C829.47 257.089 828.812 253.764 827.286 250.81C825.76 247.855 823.429 245.394 820.563 243.709C824.931 243.553 828.339 247.198 831.582 250.13C834.825 253.061 839.747 255.568 843.335 253.07C847.366 250.263 845.94 244.026 843.849 239.582Z" fill="#008BFD"/>
<path d="M236.364 37.3984H506V125.915H495.786V149.065L472.637 125.915H236.364V37.3984Z" fill="#CACACA"/>
<path d="M498.51 46.0181H243.854V116.832H498.51V46.0181Z" fill="white"/>
<path d="M386.943 66.6924H264.332V70.4133H386.943V66.6924Z" fill="#FFB163"/>
<path d="M478.032 79.5645H264.332V83.2854H478.032V79.5645Z" fill="#FFB163"/>
<path d="M477.823 92.436H264.332V96.157H477.823V92.436Z" fill="#FFB163"/>
<path d="M862.917 364.206H481.917C481.652 364.206 481.398 364.1 481.21 363.913C481.023 363.725 480.917 363.471 480.917 363.206C480.917 362.94 481.023 362.686 481.21 362.498C481.398 362.311 481.652 362.206 481.917 362.206H862.917C863.182 362.206 863.437 362.311 863.624 362.498C863.812 362.686 863.917 362.94 863.917 363.206C863.917 363.471 863.812 363.725 863.624 363.913C863.437 364.1 863.182 364.206 862.917 364.206Z" fill="#CACACA"/>
</g>
<defs>
<clipPath id="clip0_40_1022">
<rect width="863.917" height="364.205" fill="white"/>
</clipPath>
</defs>
</svg>
