<svg width="451" height="181" viewBox="0 0 451 181" fill="none" xmlns="http://www.w3.org/2000/svg">
<path d="M259.058 86.8247C259.058 79.0927 252.79 72.8247 245.058 72.8247H14C6.268 72.8247 0 79.0927 0 86.8247V152.963C0 155.672 2.19674 157.869 4.90656 157.869C7.61637 157.869 9.81312 160.066 9.81312 162.776V164.384C9.81312 170.188 16.8305 173.095 20.9344 168.99L28.7979 161.127C30.8835 159.041 33.7122 157.869 36.6618 157.869H245.058C252.79 157.869 259.058 151.601 259.058 143.869V86.8247Z" fill="#A0D4FF"/>
<path d="M237.862 81.1069H21.1963C13.4643 81.1069 7.19629 87.3749 7.19629 95.1069V135.142C7.19629 142.874 13.4643 149.142 21.1963 149.142H237.862C245.594 149.142 251.862 142.874 251.862 135.142V95.1069C251.862 87.3749 245.594 81.1069 237.862 81.1069Z" fill="white"/>
<path d="M144.847 101.624H30.621C29.6338 101.624 28.8335 102.424 28.8335 103.411C28.8335 104.399 29.6338 105.199 30.621 105.199H144.847C145.834 105.199 146.634 104.399 146.634 103.411C146.634 102.424 145.834 101.624 144.847 101.624Z" fill="#A0D4FF"/>
<path d="M232.362 113.991H30.621C29.6338 113.991 28.8335 114.791 28.8335 115.779C28.8335 116.766 29.6338 117.566 30.621 117.566H232.362C233.35 117.566 234.15 116.766 234.15 115.779C234.15 114.791 233.35 113.991 232.362 113.991Z" fill="#A0D4FF"/>
<path d="M232.161 126.358H30.621C29.6338 126.358 28.8335 127.158 28.8335 128.145C28.8335 129.133 29.6338 129.933 30.621 129.933H232.161C233.149 129.933 233.949 129.133 233.949 128.145C233.949 127.158 233.149 126.358 232.161 126.358Z" fill="#A0D4FF"/>
<path d="M180.459 14C180.459 6.268 186.727 0 194.459 0H436.095C443.827 0 450.095 6.26801 450.095 14V83.4099C450.095 86.2304 447.809 88.5168 444.988 88.5168C442.168 88.5168 439.882 90.8032 439.882 93.6236V95.2972C439.882 101.338 432.578 104.363 428.307 100.092L420.122 91.907C417.951 89.7363 415.007 88.5168 411.937 88.5168H194.459C186.727 88.5168 180.459 82.2488 180.459 74.5168V14Z" fill="#A0D4FF"/>
<path d="M428.606 8.61963H201.949C194.217 8.61963 187.949 14.8876 187.949 22.6196V65.4331C187.949 73.1651 194.217 79.4331 201.949 79.4331H428.605C436.337 79.4331 442.605 73.1651 442.605 65.4331V22.6196C442.605 14.8876 436.337 8.61963 428.606 8.61963Z" fill="white"/>
<path d="M329.177 29.2939H210.288C209.26 29.2939 208.427 30.1269 208.427 31.1544C208.427 32.1819 209.26 33.0149 210.288 33.0149H329.177C330.205 33.0149 331.038 32.1819 331.038 31.1544C331.038 30.1269 330.205 29.2939 329.177 29.2939Z" fill="#008BFD"/>
<path d="M420.267 42.166H210.288C209.26 42.166 208.427 42.999 208.427 44.0265C208.427 45.054 209.26 45.8869 210.288 45.8869H420.267C421.294 45.8869 422.127 45.054 422.127 44.0265C422.127 42.999 421.294 42.166 420.267 42.166Z" fill="#008BFD"/>
<path d="M420.057 55.0376H210.288C209.26 55.0376 208.427 55.8706 208.427 56.8981C208.427 57.9256 209.26 58.7585 210.288 58.7585H420.057C421.085 58.7585 421.918 57.9256 421.918 56.8981C421.918 55.8706 421.085 55.0376 420.057 55.0376Z" fill="#008BFD"/>
</svg>
