<svg width="342" height="521" viewBox="0 0 342 521" fill="none" xmlns="http://www.w3.org/2000/svg">
<path d="M69.5603 0.28125H269.352V123.316H69.5603V0.28125Z" fill="#2F2C54"/>
<path d="M146.675 243.583C146.675 242.513 146.885 241.453 147.295 240.465C147.704 239.476 148.304 238.577 149.061 237.821C149.818 237.064 150.716 236.464 151.705 236.055C152.693 235.645 153.753 235.435 154.823 235.435H186.969C188.04 235.433 189.101 235.643 190.091 236.051C191.082 236.46 191.981 237.06 192.739 237.817C193.497 238.574 194.099 239.472 194.509 240.462C194.919 241.451 195.13 242.512 195.13 243.583V245.811H269.069V133.347H69.2693V245.811H146.675V243.583Z" fill="#2F2C54"/>
<path d="M333.355 133.348H279.443V245.808H325.22L333.355 133.348Z" fill="#2F2C54"/>
<path d="M341.381 22.558L334.103 122.958H279.44V0H320.418C323.308 0.00142115 326.166 0.59835 328.815 1.75353C331.464 2.90871 333.846 4.59737 335.813 6.71412C337.78 8.83087 339.29 11.3303 340.248 14.0565C341.206 16.7826 341.593 19.677 341.382 22.559L341.381 22.558Z" fill="#2F2C54"/>
<path d="M322.698 257.871L313.983 421.807L313.917 422.994L311.109 475.851C310.671 487.881 305.584 499.272 296.919 507.627C288.254 515.983 276.685 520.651 264.647 520.651H75.4094C67.6534 520.66 60.0195 518.72 53.2094 515.008C53.0904 514.942 52.9724 514.876 52.8664 514.823C51.7454 514.203 50.6664 513.531 49.6094 512.832C49.3454 512.647 49.0824 512.476 48.8184 512.291C42.9064 508.175 38.0334 502.739 34.5849 496.414C31.1364 490.089 29.207 483.048 28.9494 475.849L17.3584 257.871H322.698Z" fill="#2F2C54"/>
<path d="M0.111298 42.059L5.9693 122.959H58.8793V0H39.0453H38.5183C33.1842 0.0811138 27.923 1.25257 23.0584 3.44231C18.1938 5.63206 13.8285 8.79381 10.2311 12.7331C6.63365 16.6724 3.88009 21.306 2.13977 26.3489C0.399449 31.3918 -0.290861 36.7374 0.111298 42.057V42.059Z" fill="#2F2C54"/>
<path d="M14.8564 245.808H58.8794V133.348H6.72144L14.8564 245.808Z" fill="#2F2C54"/>
<path d="M268.747 11.8662H269.064V119.979H268.747C261.629 120.01 254.575 118.634 247.989 115.931C241.404 113.228 235.417 109.252 230.373 104.229C225.329 99.2063 221.326 93.2368 218.595 86.6631C215.864 80.0895 214.458 73.0411 214.458 65.9227C214.458 58.8043 215.864 51.756 218.595 45.1823C221.326 38.6087 225.329 32.6392 230.373 27.6165C235.417 22.5939 241.404 18.617 247.989 15.9141C254.575 13.2112 261.629 11.8356 268.747 11.8662Z" fill="#008BFD"/>
<path d="M322.804 65.9219C322.801 78.4027 318.481 90.4982 310.577 100.158C302.674 109.817 291.673 116.447 279.44 118.922V12.9219C291.673 15.397 302.674 22.0263 310.577 31.6859C318.481 41.3455 322.801 53.441 322.804 65.9219Z" fill="#008BFD"/>
<path opacity="0.416" d="M55.0293 266.982C62.5093 267.333 77.9803 271.048 94.7453 275.85C111.51 280.652 129.673 286.522 147.615 292.323C179.023 302.47 210.43 312.613 241.834 322.753C246.152 324.145 253.827 329.418 258.168 330.834C259.83 333.008 258.138 331.334 259.761 333.554C255.945 332.205 252.114 330.9 248.294 329.654C231.974 324.354 217.812 320.854 201.972 316.027C177.596 308.608 151.881 298.864 126.94 289.79C101.999 280.716 73.3893 270.938 55.0293 266.982Z" fill="#F0F0F0"/>
<path opacity="0.2" d="M252.031 104.635C256.385 104.635 259.913 101.106 259.913 96.7531C259.913 92.4 256.385 88.8711 252.031 88.8711C247.678 88.8711 244.149 92.4 244.149 96.7531C244.149 101.106 247.678 104.635 252.031 104.635Z" fill="black"/>
<path opacity="0.2" d="M300.768 72.1111C303.878 72.1111 306.398 69.5904 306.398 66.4811C306.398 63.3717 303.878 60.8511 300.768 60.8511C297.659 60.8511 295.138 63.3717 295.138 66.4811C295.138 69.5904 297.659 72.1111 300.768 72.1111Z" fill="black"/>
<path opacity="0.2" d="M244.149 73.4378C254.1 73.4378 262.166 65.3713 262.166 55.4208C262.166 45.4703 254.1 37.4038 244.149 37.4038C234.199 37.4038 226.132 45.4703 226.132 55.4208C226.132 65.3713 234.199 73.4378 244.149 73.4378Z" fill="black"/>
<path d="M164.702 66.4802C166.787 66.4802 168.477 64.7901 168.477 62.7052C168.477 60.6203 166.787 58.9302 164.702 58.9302C162.618 58.9302 160.927 60.6203 160.927 62.7052C160.927 64.7901 162.618 66.4802 164.702 66.4802Z" fill="white"/>
<path d="M299.184 169.319C301.269 169.319 302.959 167.629 302.959 165.544C302.959 163.459 301.269 161.769 299.184 161.769C297.1 161.769 295.409 163.459 295.409 165.544C295.409 167.629 297.1 169.319 299.184 169.319Z" fill="white"/>
<path d="M80.8263 302.525C82.0198 302.525 82.9873 301.558 82.9873 300.364C82.9873 299.171 82.0198 298.203 80.8263 298.203C79.6328 298.203 78.6653 299.171 78.6653 300.364C78.6653 301.558 79.6328 302.525 80.8263 302.525Z" fill="white"/>
<path d="M268.86 305.048C270.254 305.048 271.384 303.918 271.384 302.524C271.384 301.13 270.254 300 268.86 300C267.466 300 266.336 301.13 266.336 302.524C266.336 303.918 267.466 305.048 268.86 305.048Z" fill="white"/>
<path d="M123.83 183.89C125.224 183.89 126.354 182.76 126.354 181.366C126.354 179.972 125.224 178.842 123.83 178.842C122.436 178.842 121.306 179.972 121.306 181.366C121.306 182.76 122.436 183.89 123.83 183.89Z" fill="white"/>
<path d="M203.176 278.033C204.57 278.033 205.7 276.903 205.7 275.509C205.7 274.115 204.57 272.985 203.176 272.985C201.782 272.985 200.652 274.115 200.652 275.509C200.652 276.903 201.782 278.033 203.176 278.033Z" fill="white"/>
<path d="M205.765 396.143C204.881 395.564 203.965 394.981 203.03 394.425C198.656 391.834 193.795 389.815 189.045 391.198C184.066 392.646 180.885 397.385 178.203 401.823C163.682 425.845 151.088 450.98 140.54 476.992C157.264 463.046 161.583 438.766 176.483 422.888C179.005 420.206 182.213 417.634 185.889 417.798C188.853 417.927 191.398 419.798 194.011 421.192C200.895 424.88 208.957 425.492 216.747 426.027C227.53 426.772 238.314 427.516 249.099 428.259L249.114 428.088C241.474 421.778 233.651 415.711 225.646 409.888C219.132 405.137 212.505 400.555 205.765 396.143Z" fill="#F2F2F2"/>
<path d="M280.547 455.399C269.352 440.508 256.572 426.879 242.43 414.751C241.296 413.775 240.149 412.813 238.989 411.851C236.511 409.808 234.001 407.808 231.461 405.851C226.082 401.738 220.562 397.844 214.901 394.17C211.501 391.97 208.051 389.847 204.551 387.802C203.668 387.288 202.784 386.774 201.888 386.273C199.66 385.02 197.432 383.768 195.151 382.608C192.972 381.329 190.526 380.571 188.005 380.393C179.343 380.261 174.847 390.07 171.762 396.676C170.8 398.759 169.82 400.834 168.822 402.899C165.078 410.744 161.184 418.514 157.141 426.209C154.649 430.968 152.105 435.697 149.507 440.396C145.815 447.054 142.023 453.646 138.129 460.173C133.463 468.004 128.65 475.744 123.692 483.391C115.162 496.536 106.684 508.591 97.5874 520.65H98.9584C109.097 507.004 118.726 493.02 127.845 478.697C135.754 466.275 143.277 453.622 150.415 440.738C153.804 434.605 157.104 428.425 160.315 422.2C162.794 417.361 165.224 412.505 167.606 407.631C168.292 406.231 168.951 404.831 169.606 403.425C171.162 400.116 172.678 396.793 174.313 393.537C176.172 389.837 178.427 385.93 181.855 383.437C183.408 382.255 185.264 381.537 187.208 381.367C189.952 381.389 192.637 382.159 194.974 383.595C198.073 385.217 201.14 386.905 204.174 388.658C213.418 394.039 222.307 400.007 230.788 406.524C235.35 410.031 239.784 413.679 244.088 417.467C259.076 430.624 272.471 445.492 283.997 461.767C284.353 462.267 285.184 461.793 284.828 461.279C283.433 459.301 282.006 457.341 280.547 455.399Z" fill="#F2F2F2"/>
<path d="M306.771 416.188C301.84 412.522 296.727 409.108 291.451 405.957C288.814 404.375 286.151 402.872 283.435 401.422C282.618 400.987 281.787 400.565 280.956 400.156C279.058 399.193 277.082 398.39 275.049 397.756C272.176 396.826 269.136 396.525 266.136 396.873C263.239 397.294 260.447 398.26 257.909 399.721C252.516 402.74 248.337 407.394 244.276 411.943C244.192 412.035 244.147 412.156 244.149 412.281C244.151 412.406 244.202 412.526 244.289 412.615C244.329 412.664 244.379 412.704 244.436 412.732C244.493 412.759 244.556 412.773 244.619 412.773C244.682 412.773 244.745 412.759 244.802 412.732C244.859 412.704 244.909 412.664 244.948 412.615C245.462 412.061 245.948 411.494 246.464 410.941C250.464 406.511 254.744 402.147 260.242 399.616C262.857 398.364 265.715 397.702 268.614 397.678C271.603 397.755 274.551 398.394 277.303 399.563C278.608 400.09 279.887 400.684 281.153 401.317C282.59 402.042 284.014 402.817 285.412 403.598C288.062 405.064 290.673 406.589 293.244 408.173C298.373 411.337 303.335 414.747 308.129 418.404C310.093 419.894 312.019 421.41 313.917 422.992L313.983 421.805C311.623 419.866 309.219 417.994 306.771 416.188Z" fill="#F2F2F2"/>
<path d="M73.8665 482.018C79.4831 474.978 85.1481 467.972 90.8615 461.002C92.2325 459.314 93.6175 457.614 95.0145 455.939C96.1356 454.543 97.3608 453.234 98.6794 452.023C99.9682 450.81 101.488 449.868 103.148 449.254C105.008 448.675 106.996 448.647 108.87 449.175C111.016 449.798 113.128 450.529 115.199 451.364L121.62 453.711L134.528 458.431C134.609 458.469 134.701 458.478 134.787 458.456C134.874 458.435 134.95 458.384 135.003 458.312C135.053 458.248 135.086 458.174 135.102 458.095C135.117 458.015 135.114 457.934 135.092 457.856C135.07 457.778 135.031 457.707 134.977 457.647C134.922 457.587 134.855 457.541 134.779 457.512L131.536 456.312L118.536 451.566C116.374 450.775 114.225 449.966 112.062 449.193C110.081 448.359 107.963 447.894 105.813 447.822C102.148 447.888 99.0894 450.129 96.6364 452.661C95.3044 454.045 94.0914 455.535 92.8784 457.025C91.4414 458.778 89.9915 460.545 88.5535 462.312C82.7788 469.379 77.0435 476.485 71.3475 483.631C65.6515 490.777 59.9908 497.944 54.3654 505.131C52.5061 507.518 50.6558 509.904 48.8145 512.29C49.0785 512.475 49.3414 512.646 49.6054 512.831C52.0841 509.615 54.5805 506.406 57.0945 503.206C62.6465 496.113 68.2371 489.05 73.8665 482.018Z" fill="#F2F2F2"/>
<path d="M261.939 405.176C257.148 407.639 253.513 411.906 248.865 414.63C260.057 411.318 271.435 408.663 282.938 406.678C279.885 404.587 276.332 403.346 272.642 403.082C268.952 402.818 265.258 403.541 261.939 405.176Z" fill="#F2F2F2"/>
<path d="M282.936 406.677C283.392 406.996 283.836 407.333 284.264 407.692L283.001 406.665L282.936 406.677Z" fill="#F2F2F2"/>
<path d="M103.708 454.681C101.867 455.497 100.291 456.813 99.1614 458.481L51.8503 516.07C73.7187 499.499 91.9698 478.634 105.483 454.755L103.708 454.681Z" fill="#F2F2F2"/>
<path opacity="0.2" d="M295.077 45.286C299.43 45.286 302.959 41.7571 302.959 37.404C302.959 33.0509 299.43 29.522 295.077 29.522C290.724 29.522 287.195 33.0509 287.195 37.404C287.195 41.7571 290.724 45.286 295.077 45.286Z" fill="black"/>
<path d="M109.793 19.095L108.177 20.7L106.572 19.083L105.493 20.157L107.093 21.773L105.477 23.378L106.547 24.455L108.164 22.855L109.764 24.471L110.842 23.401L109.237 21.785L110.853 20.185L109.793 19.095Z" fill="#D6D6E3"/>
<path d="M230.597 142.445L228.923 144.106L227.26 142.431L226.144 143.54L227.807 145.214L226.133 146.877L227.241 147.993L228.916 146.33L230.579 148.004L231.695 146.895L230.032 145.221L231.706 143.558L230.597 142.445Z" fill="#E6E6E6"/>
<path d="M47.6584 151.975L45.9084 153.713L44.1704 151.963L43.0045 153.122L44.7424 154.872L42.9924 156.61L44.1505 157.776L45.9024 156.036L47.6404 157.786L48.8074 156.627L47.0695 154.877L48.8195 153.139L47.6584 151.975Z" fill="#E6E6E6"/>
<path opacity="0.8" d="M124.71 62.528L139.805 44.857L154.899 27.186L163.42 17.21C163.891 16.658 163.164 15.797 162.692 16.349L147.598 34.02L132.503 51.691L123.982 61.667C123.511 62.22 124.239 63.08 124.71 62.528Z" fill="url(#paint0_linear_42_1245)"/>
<defs>
<linearGradient id="paint0_linear_42_1245" x1="123.83" y1="39.4386" x2="163.573" y2="39.4386" gradientUnits="userSpaceOnUse">
<stop stop-color="white"/>
<stop offset="1" stop-color="white" stop-opacity="0.302"/>
</linearGradient>
</defs>
</svg>
