<svg width="317" height="80" viewBox="0 0 317 80" fill="none" xmlns="http://www.w3.org/2000/svg">
<path d="M195.474 53.76C185.917 53.76 179.346 52.352 175.762 49.536C173.543 47.9147 172.434 45.9093 172.434 43.52C172.434 41.5573 173.117 39.8507 174.482 38.4C175.847 36.9493 177.469 36.224 179.346 36.224C179.773 36.224 180.242 36.2667 180.754 36.352C181.351 36.4373 181.949 36.6507 182.546 36.992C185.106 37.9307 187.495 38.656 189.714 39.168C192.018 39.68 194.194 39.936 196.242 39.936C199.741 39.936 201.49 38.8693 201.49 36.736C201.49 36.0533 201.319 35.5413 200.978 35.2C200.722 34.7733 200.082 34.3893 199.058 34.048C198.119 33.6213 196.541 33.152 194.322 32.64C191.079 31.7867 188.007 30.8907 185.106 29.952C182.29 29.0133 179.986 27.6053 178.194 25.728C176.402 23.7653 175.506 20.9067 175.506 17.152C175.506 11.6053 177.255 7.38133 180.754 4.48C184.338 1.49333 189.458 0 196.114 0C203.282 0 208.402 1.19467 211.474 3.584C213.266 4.864 214.162 6.61333 214.162 8.832C214.162 10.7093 213.479 12.3733 212.114 13.824C210.749 15.1893 209.213 15.872 207.506 15.872C206.994 15.872 206.525 15.8293 206.098 15.744C205.671 15.6587 204.519 15.4027 202.642 14.976C201.618 14.5493 200.637 14.2507 199.698 14.08C198.845 13.9093 197.906 13.824 196.882 13.824C195.09 13.824 193.767 14.0373 192.914 14.464C192.146 14.8907 191.762 15.5733 191.762 16.512C191.762 17.024 191.89 17.4507 192.146 17.792C192.487 18.1333 193.341 18.5173 194.706 18.944C196.157 19.3707 198.503 20.0533 201.746 20.992C207.719 22.528 211.858 24.4907 214.162 26.88C216.466 29.184 217.618 32.512 217.618 36.864C217.618 48.128 210.237 53.76 195.474 53.76Z" fill="#008BFD"/>
<path d="M132.518 5.632C136.017 1.87733 140.923 0 147.238 0C153.723 0 158.673 2.13333 162.086 6.4C165.585 10.5813 167.334 16.64 167.334 24.576V28.928C167.334 36.864 165.542 43.008 161.958 47.36C158.459 51.6267 153.51 53.76 147.11 53.76C144.55 53.76 142.203 53.4187 140.07 52.736C138.022 52.1387 136.23 51.2427 134.694 50.048V68.992C134.694 72.32 133.969 74.88 132.518 76.672C131.067 78.464 129.019 79.36 126.374 79.36C123.643 79.36 121.553 78.464 120.102 76.672C118.651 74.88 117.926 72.32 117.926 68.992V7.04C117.926 2.34667 120.486 0 125.606 0C127.398 0 128.849 0.426666 129.958 1.28C131.153 2.048 132.006 3.49867 132.518 5.632ZM134.822 28.16C134.907 32.256 135.505 35.1147 136.614 36.736C137.723 38.272 139.686 39.04 142.502 39.04C145.233 39.04 147.195 38.1867 148.39 36.48C149.67 34.7733 150.31 32 150.31 28.16V25.6C150.31 21.6747 149.713 18.9013 148.518 17.28C147.409 15.5733 145.489 14.72 142.758 14.72C139.942 14.72 137.894 15.5733 136.614 17.28C135.334 18.9867 134.694 21.76 134.694 25.6L134.822 28.16Z" fill="#008BFD"/>
<path d="M57.875 24.576C57.875 16.64 60.0083 10.5813 64.275 6.4C68.627 2.13333 74.8137 0 82.835 0C90.8563 0 97.0003 2.13333 101.267 6.4C105.619 10.5813 107.795 16.64 107.795 24.576V29.056C107.795 37.0773 105.619 43.2213 101.267 47.488C97.0003 51.6693 90.8563 53.76 82.835 53.76C74.8137 53.76 68.627 51.6693 64.275 47.488C60.0083 43.2213 57.875 37.0773 57.875 29.056V24.576ZM90.771 25.6C90.771 21.6747 90.131 18.9013 88.851 17.28C87.6563 15.5733 85.651 14.72 82.835 14.72C80.019 14.72 77.971 15.5733 76.691 17.28C75.4963 18.9013 74.899 21.6747 74.899 25.6V28.16C74.9843 32.1707 75.5817 34.9867 76.691 36.608C77.8857 38.2293 79.891 39.04 82.707 39.04C85.6083 39.04 87.6563 38.1867 88.851 36.48C90.131 34.7733 90.771 32 90.771 28.16V25.6Z" fill="#008BFD"/>
<path d="M0 24.576C0 16.64 2.13333 10.5813 6.4 6.4C10.752 2.13333 16.9387 0 24.96 0C32.9813 0 39.1253 2.13333 43.392 6.4C47.744 10.5813 49.92 16.64 49.92 24.576V29.056C49.92 37.0773 47.744 43.2213 43.392 47.488C39.1253 51.6693 32.9813 53.76 24.96 53.76C16.9387 53.76 10.752 51.6693 6.4 47.488C2.13333 43.2213 0 37.0773 0 29.056V24.576ZM32.896 25.6C32.896 21.6747 32.256 18.9013 30.976 17.28C29.7813 15.5733 27.776 14.72 24.96 14.72C22.144 14.72 20.096 15.5733 18.816 17.28C17.6213 18.9013 17.024 21.6747 17.024 25.6V28.16C17.1093 32.1707 17.7067 34.9867 18.816 36.608C20.0107 38.2293 22.016 39.04 24.832 39.04C27.7333 39.04 29.7813 38.1867 30.976 36.48C32.256 34.7733 32.896 32 32.896 28.16V25.6Z" fill="#008BFD"/>
<path d="M259.827 6.38867C262.813 6.38867 265.203 7.32734 266.995 9.20467C268.872 11.082 269.811 13.5567 269.811 16.6287C269.811 19.7007 268.872 22.1753 266.995 24.0527C265.203 25.93 262.813 26.8687 259.827 26.8687C256.84 26.8687 254.408 25.93 252.531 24.0527C250.653 22.1753 249.715 19.7007 249.715 16.6287C249.715 13.5567 250.653 11.082 252.531 9.20467C254.408 7.32734 256.84 6.38867 259.827 6.38867Z" fill="#008BFD"/>
<path d="M299.923 6.38867C302.909 6.38867 305.299 7.32734 307.091 9.20467C308.968 11.082 309.907 13.5567 309.907 16.6287C309.907 19.7007 308.968 22.1753 307.091 24.0527C305.299 25.93 302.909 26.8687 299.923 26.8687C296.936 26.8687 294.504 25.93 292.627 24.0527C290.749 22.1753 289.811 19.7007 289.811 16.6287C289.811 13.5567 290.749 11.082 292.627 9.20467C294.504 7.32734 296.936 6.38867 299.923 6.38867Z" fill="#008BFD"/>
<path d="M247.125 47.3723L249.938 46.5542C269.449 40.8816 290.172 40.8816 309.683 46.5542L312.497 47.3723" stroke="#008BFD" stroke-width="9" stroke-linecap="round"/>
</svg>
