<svg width="860" height="275" viewBox="0 0 860 275" fill="none" xmlns="http://www.w3.org/2000/svg">
<g clip-path="url(#clip0_42_1328)">
<path d="M262.989 123.84C262.643 122.827 262.06 121.912 261.289 121.17C261.004 120.906 260.696 120.668 260.369 120.46C257.759 118.72 253.859 118.33 251.379 120.46C251.129 120.676 250.898 120.914 250.689 121.17C249.949 122.08 249.189 122.97 248.409 123.84C247.129 125.3 245.819 126.71 244.449 128.08C244.059 128.46 243.669 128.85 243.269 129.23C243.039 129.46 242.809 129.68 242.579 129.9C241.699 130.74 240.799 131.55 239.889 132.35C239.409 132.78 238.929 133.2 238.439 133.61C237.709 134.22 236.979 134.83 236.239 135.42C236.169 135.47 236.099 135.52 236.029 135.58C236.009 135.59 235.999 135.61 235.979 135.62C235.969 135.62 235.959 135.62 235.949 135.64C235.922 135.65 235.898 135.668 235.879 135.69C235.659 135.84 235.509 135.94 235.399 136.03C235.439 136.01 235.479 135.98 235.519 135.96C235.339 136.1 235.149 136.24 234.969 136.38C233.219 137.67 231.429 138.91 229.599 140.07C225.071 142.967 220.316 145.493 215.379 147.62C215.049 147.75 214.709 147.89 214.369 148.02C201.443 153.315 187.422 155.381 173.519 154.04C172.099 153.93 170.679 153.78 169.259 153.59C167.619 153.35 165.989 153.06 164.369 152.73C158.201 151.499 152.167 149.677 146.349 147.29C139.071 143.957 132.149 139.896 125.689 135.17C124.689 134.46 123.679 133.75 122.669 133.06C123.819 130.24 124.949 127.42 126.049 124.58C126.599 123.21 127.129 121.84 127.649 120.46C131.739 109.83 135.579 99.0998 139.259 88.3298C142.979 77.4198 146.489 66.4464 149.789 55.4098C150.129 54.2898 150.459 53.1698 150.779 52.0498C152.509 46.2198 154.169 40.3764 155.759 34.5198C155.909 33.9498 156.069 33.3898 156.209 32.8198C156.669 31.1398 157.119 29.4598 157.559 27.7798C158.559 23.9898 156.299 19.4598 152.319 18.5498C150.403 18.0585 148.37 18.3301 146.651 19.3076C144.931 20.2851 143.657 21.892 143.099 23.7898C142.669 25.4098 142.239 27.0198 141.799 28.6398C139.689 36.4697 137.469 44.2731 135.139 52.0498C134.799 53.1698 134.459 54.2898 134.119 55.4098C128.979 72.3498 123.335 89.1198 117.189 105.72C116.449 107.73 115.699 109.733 114.939 111.73C114.569 112.71 114.199 113.69 113.819 114.67C113.089 116.6 112.339 118.53 111.589 120.46C111.159 121.59 110.719 122.72 110.279 123.84C109.989 124.55 109.709 125.26 109.429 125.96C106.578 124.936 103.624 124.225 100.619 123.84L100.139 123.78C97.8092 123.499 95.4533 123.52 93.1288 123.84C89.6499 124.246 86.3026 125.411 83.3235 127.253C80.3445 129.095 77.8065 131.569 75.8888 134.5C71.1188 142.01 71.1788 152.75 77.8688 159.13C84.7588 165.7 95.1888 165.65 103.299 161.54C107.597 159.215 111.22 155.818 113.819 151.68C114.814 150.18 115.729 148.627 116.559 147.03C116.769 147.17 116.979 147.31 117.189 147.46C117.989 148.02 118.789 148.59 119.579 149.15C124.182 152.484 129.033 155.463 134.089 158.06C144.961 163.465 156.664 167.004 168.709 168.53C168.979 168.56 169.239 168.6 169.509 168.63C170.839 168.8 172.179 168.93 173.519 169.04C192.741 170.488 211.987 166.555 229.099 157.68C230.549 156.93 231.985 156.143 233.409 155.32C235.619 154.04 237.779 152.68 239.889 151.24C241.039 150.46 242.159 149.67 243.269 148.84C248.119 145.267 252.641 141.268 256.779 136.89C258.349 135.24 259.852 133.536 261.289 131.78C262.647 130.343 263.43 128.456 263.489 126.48C263.481 125.577 263.312 124.683 262.989 123.84ZM97.3988 147.66C97.6088 147.51 97.8188 147.35 98.0188 147.19C97.9589 147.34 97.6688 147.51 97.3988 147.66ZM100.609 144.43C100.379 144.69 100.169 144.95 99.9388 145.21C99.2391 145.993 98.4874 146.728 97.6888 147.41C97.5788 147.51 97.4588 147.61 97.3388 147.7C97.3375 147.7 97.3362 147.7 97.335 147.7C97.3337 147.701 97.3326 147.702 97.3317 147.703C97.3308 147.704 97.33 147.705 97.3295 147.706C97.329 147.707 97.3288 147.708 97.3288 147.71C97.1844 147.774 97.0441 147.848 96.9088 147.93C96.4788 148.19 96.0388 148.43 95.5888 148.65C94.7078 148.974 93.8013 149.225 92.8788 149.4C92.17 149.451 91.4586 149.458 90.7488 149.42H90.7288C90.239 149.311 89.7551 149.178 89.2788 149.02C89.0388 148.9 88.8088 148.76 88.5788 148.62C88.4888 148.54 88.4088 148.46 88.3588 148.41C88.2611 148.321 88.1709 148.224 88.0889 148.12C88.0889 148.118 88.0887 148.117 88.0882 148.116C88.0877 148.115 88.087 148.114 88.086 148.113C88.0851 148.112 88.084 148.111 88.0827 148.11C88.0815 148.11 88.0802 148.11 88.0789 148.11C87.9688 147.91 87.8488 147.71 87.7389 147.51C87.7332 147.505 87.7296 147.497 87.7289 147.49C87.6489 147.24 87.5789 146.98 87.5189 146.72C87.4972 146.263 87.5005 145.806 87.5289 145.35C87.6631 144.711 87.8435 144.083 88.0689 143.47C88.2714 143.035 88.5018 142.614 88.7589 142.21C88.7789 142.17 88.8789 142.01 88.9889 141.83C88.9989 141.82 88.9989 141.82 88.9989 141.81C89.1489 141.64 89.2989 141.46 89.4589 141.3C89.7289 141 90.0189 140.74 90.3089 140.47C90.8729 140.101 91.4571 139.763 92.0589 139.46C93.0135 139.121 93.9932 138.857 94.9889 138.67C96.4572 138.553 97.9329 138.566 99.3989 138.71C100.787 138.951 102.157 139.288 103.499 139.72C102.686 141.298 101.76 142.815 100.729 144.26C100.689 144.32 100.649 144.38 100.609 144.43ZM89.4888 141.14C89.4007 141.281 89.2967 141.412 89.1788 141.53C89.2582 141.382 89.3632 141.25 89.4888 141.14Z" fill="#008BFD"/>
<path d="M232.929 21.71C232.839 24.85 232.749 27.99 232.659 31.13C232.469 38.1 232.272 45.0733 232.069 52.05C231.859 59.9 231.639 67.7466 231.409 75.59C231.299 79.64 231.185 83.69 231.069 87.74C230.759 98.65 230.452 109.557 230.149 120.46C230.119 121.59 230.079 122.71 230.049 123.84C229.899 129.25 229.749 134.66 229.599 140.07C229.429 145.94 229.262 151.81 229.099 157.68C228.979 162.08 228.855 166.483 228.729 170.89C227.829 202.82 226.929 234.75 226.029 266.68C225.991 268.657 225.188 270.543 223.79 271.941C222.392 273.34 220.506 274.142 218.529 274.18C216.545 274.164 214.646 273.369 213.243 271.966C211.84 270.563 211.045 268.664 211.029 266.68C211.529 248.72 212.035 230.76 212.549 212.8C212.999 196.56 213.455 180.32 213.919 164.08C214.069 158.73 214.219 153.377 214.369 148.02C214.599 139.96 214.825 131.9 215.049 123.84C215.079 122.71 215.119 121.59 215.149 120.46C215.169 119.47 215.199 118.49 215.229 117.5C215.669 101.85 216.109 86.1966 216.549 70.54C216.729 64.38 216.902 58.2167 217.069 52.05C217.269 45.02 217.469 37.9933 217.669 30.97C217.759 27.88 217.839 24.8 217.929 21.71C217.967 19.7327 218.769 17.8471 220.168 16.4487C221.566 15.0504 223.452 14.248 225.429 14.21C227.413 14.2259 229.311 15.0213 230.714 16.4243C232.117 17.8274 232.913 19.7258 232.929 21.71Z" fill="#008BFD"/>
<path d="M644.357 23.7912C636.492 53.5709 627.093 82.9238 616.196 111.732C613.189 119.679 610.113 127.609 606.824 135.444L607.58 133.653C606.113 137.385 604.238 140.943 601.991 144.265C601.838 144.479 601.682 144.691 601.524 144.901C602.301 143.907 602.449 143.711 601.967 144.312C601.713 144.613 601.462 144.914 601.199 145.207C600.499 145.991 599.748 146.727 598.95 147.411C598.749 147.582 598.545 147.751 598.338 147.915L599.276 147.186C599.167 147.443 598.404 147.783 598.166 147.929C597.395 148.394 596.591 148.801 595.761 149.147L597.552 148.391C596.191 148.94 594.772 149.329 593.321 149.552L595.315 149.284C593.89 149.481 592.446 149.496 591.017 149.33L593.011 149.598C591.842 149.437 590.698 149.129 589.606 148.681L591.398 149.437C590.815 149.183 590.254 148.884 589.719 148.541C589.447 148.364 588.614 147.732 589.704 148.565C590.837 149.431 589.85 148.64 589.616 148.41C589.422 148.218 589.247 148.01 589.057 147.815C588.174 146.91 590.053 149.371 589.453 148.313C589.133 147.783 588.84 147.237 588.575 146.676L589.331 148.468C588.987 147.615 588.743 146.726 588.603 145.817L588.871 147.81C588.728 146.68 588.727 145.536 588.868 144.406L588.6 146.399C588.784 145.137 589.117 143.902 589.595 142.719L588.839 144.511C589.172 143.715 589.566 142.947 590.017 142.212C590.225 141.833 590.469 141.474 590.745 141.141C590.794 141.157 589.477 142.654 590.176 141.898C590.359 141.7 590.53 141.492 590.715 141.296C591.011 140.982 591.328 140.695 591.641 140.398C592.685 139.404 590.179 141.364 591.384 140.577C592.258 140.003 593.177 139.501 594.133 139.078L592.342 139.834C593.943 139.176 595.622 138.726 597.337 138.494L595.343 138.762C597.491 138.515 599.662 138.541 601.804 138.838L599.81 138.571C602.522 138.982 605.173 139.727 607.702 140.791L605.91 140.034C611.3 142.348 616.073 145.784 620.838 149.152C625.44 152.485 630.29 155.463 635.344 158.059C646.217 163.465 657.921 167.005 669.967 168.533C687.242 170.649 704.772 168.393 720.949 161.971C737.126 155.55 751.431 145.169 762.552 131.781C763.909 130.342 764.691 128.454 764.749 126.477C764.735 124.491 763.947 122.589 762.552 121.174C759.801 118.648 754.603 117.935 751.945 121.174C749.427 124.249 746.72 127.163 743.839 129.901C742.494 131.177 741.113 132.414 739.697 133.611C738.887 134.295 738.067 134.965 737.236 135.622C736.842 135.933 735.617 136.76 737.499 135.425C737.067 135.731 736.654 136.065 736.228 136.379C729.93 141.022 723.106 144.904 715.896 147.944L717.688 147.188C709.951 150.433 701.826 152.659 693.516 153.811L695.51 153.543C686.962 154.667 678.302 154.654 669.757 153.505L671.75 153.773C663.207 152.599 654.852 150.324 646.893 147.002L648.685 147.758C641.005 144.36 633.717 140.139 626.949 135.167C623.426 132.559 619.711 130.221 615.836 128.173C611.321 125.867 606.432 124.381 601.398 123.785C591.959 122.674 582.341 126.35 577.152 134.505C572.376 142.01 572.438 152.749 579.125 159.13C586.013 165.703 596.444 165.647 604.561 161.536C612.378 157.576 617.074 149.35 620.376 141.594C627.807 124.139 634.386 106.28 640.516 88.3309C646.58 70.5728 652.08 52.6351 657.014 34.5176C657.625 32.2737 658.228 30.0275 658.821 27.7789C659.822 23.9902 657.56 19.4589 653.583 18.553C651.666 18.0596 649.632 18.33 647.911 19.3074C646.19 20.2847 644.916 21.8923 644.357 23.7912Z" fill="#008BFD"/>
<path d="M719.189 21.7095L716.49 117.503L713.804 212.797L712.286 266.68C712.303 268.664 713.098 270.562 714.501 271.965C715.904 273.368 717.802 274.164 719.786 274.18C721.763 274.142 723.649 273.34 725.047 271.941C726.445 270.543 727.248 268.658 727.286 266.68L729.985 170.887L732.671 75.5931L734.189 21.7095C734.173 19.7256 733.377 17.8277 731.974 16.4248C730.571 15.022 728.673 14.2264 726.689 14.2095C724.712 14.2477 722.827 15.0501 721.428 16.4485C720.03 17.8468 719.228 19.7323 719.189 21.7095Z" fill="#008BFD"/>
<path opacity="0.2" d="M459.591 239.935H461.92V133.893H516.249V131.571H461.92V86.8262H503.876C503.261 86.0439 502.628 85.2716 501.977 84.5092H461.92V54.9564C461.15 54.6279 460.374 54.3114 459.591 54.0128V84.5092H413.939V46.644C413.157 46.6799 412.387 46.7336 411.61 46.7993V84.5093H375.19V56.2581C374.408 56.6045 373.638 56.9688 372.873 57.351V84.5092H342.258V86.8262H372.873V131.571H342.258V133.893H372.873V239.935H375.19V133.893C379.973 133.892 384.71 134.834 389.129 136.664C393.548 138.494 397.563 141.176 400.945 144.559C404.327 147.941 407.01 151.956 408.84 156.375C410.67 160.794 411.611 165.531 411.61 170.314V239.935H413.939V133.893H459.591V239.935ZM375.19 131.571V86.8262H411.61V131.571H375.19ZM413.939 131.571V86.8262H414.853C420.728 86.8266 426.546 87.9842 431.975 90.233C437.403 92.4819 442.335 95.7778 446.489 99.9327C450.643 104.088 453.939 109.02 456.187 114.449C458.435 119.877 459.592 125.695 459.591 131.571H413.939Z" fill="white"/>
<path d="M519.887 94.0608C511.278 77.2686 497.941 63.1399 482.255 52.7572C466.518 42.3888 448.461 36.0746 429.692 34.3773C427.232 34.1537 424.765 34.0228 422.293 33.9845C419.372 33.9408 375.427 46.6163 360.706 56.9666C345.993 67.1908 333.89 80.7307 325.373 96.4936C316.871 112.343 312.689 130.15 313.247 148.127C313.976 166.212 319.017 183.861 327.95 199.603C336.761 215.294 349.272 228.594 364.394 238.349C379.732 248.135 395.139 274.084 413.249 275C431.494 275.923 452.303 251.445 468.944 244.013C485.585 236.519 499.971 224.795 510.669 210.008C521.065 195.518 527.79 178.721 530.268 161.06C532.842 142.977 531.642 124.328 525.467 107.044C523.883 102.603 522.019 98.2666 519.887 94.0608C518.107 90.5556 512.891 89.2649 509.625 91.3702C507.943 92.4062 506.725 94.0506 506.224 95.9617C505.723 97.8728 505.977 99.9035 506.935 101.632C507.98 103.69 508.952 105.783 509.85 107.909L509.094 106.118C512.494 114.293 514.806 122.879 515.971 131.656L515.703 129.662C516.941 139.184 516.919 148.828 515.636 158.345L515.904 156.351C514.608 165.866 512.068 175.17 508.35 184.025L509.106 182.233C507.193 186.751 504.964 191.128 502.434 195.332C501.152 197.455 499.792 199.529 498.354 201.553C497.722 202.441 497.071 203.314 496.415 204.184C495.558 205.32 497.582 202.701 496.697 203.815C496.546 204.005 496.397 204.195 496.245 204.384C495.791 204.952 495.33 205.515 494.863 206.072C491.745 209.792 488.343 213.263 484.687 216.456C483.776 217.25 482.85 218.027 481.909 218.787C481.44 219.165 480.977 219.559 480.488 219.911C480.507 219.898 482.068 218.712 481.144 219.4C480.853 219.617 480.565 219.837 480.274 220.052C478.334 221.489 476.343 222.853 474.3 224.144C469.596 227.107 464.662 229.687 459.544 231.857L461.336 231.101C452.508 234.818 443.229 237.357 433.739 238.653L435.733 238.385C426.248 239.667 416.634 239.684 407.144 238.436L409.138 238.703C400.513 237.545 392.076 235.264 384.042 231.919L385.834 232.675C381.181 230.71 376.694 228.372 372.418 225.684C370.302 224.351 368.241 222.935 366.234 221.437C365.948 221.223 365.664 221.006 365.379 220.791C364.464 220.1 366.037 221.301 366.05 221.309C365.517 220.927 365.005 220.518 364.515 220.084C363.546 219.295 362.592 218.488 361.653 217.662C357.897 214.355 354.39 210.775 351.16 206.953C350.351 205.997 349.56 205.027 348.786 204.042C348.451 203.616 347.839 202.752 349.19 204.571C349.012 204.332 348.828 204.097 348.649 203.859C348.218 203.287 347.792 202.712 347.373 202.131C345.904 200.099 344.508 198.017 343.185 195.885C340.195 191.06 337.585 186.008 335.38 180.777L336.136 182.569C332.527 173.982 330.059 164.96 328.795 155.732L329.063 157.725C327.923 149.219 327.907 140.6 329.015 132.09L328.747 134.083C329.883 125.842 332.1 117.786 335.341 110.124L334.585 111.916C336.625 107.119 339.03 102.487 341.781 98.0596C343.158 95.8441 344.617 93.6825 346.158 91.5749C346.508 91.096 346.863 90.6201 347.221 90.1471C347.545 89.7192 348.436 88.6537 346.915 90.5355C347.064 90.351 347.208 90.1612 347.355 89.9751C348.201 88.9034 349.067 87.8484 349.954 86.8101C353.312 82.8794 356.949 79.1962 360.838 75.7893C361.82 74.9282 362.819 74.0852 363.832 73.2603C364.293 72.8855 364.757 72.5145 365.223 72.1474C365.41 72.0007 365.599 71.8567 365.785 71.7088C363.787 73.2984 365.23 72.1414 365.683 71.8017C367.773 70.2362 369.918 68.749 372.119 67.3404C377.011 64.2114 382.158 61.4992 387.505 59.2324L385.714 59.9885C393.474 56.7302 427.854 49.0393 434.108 49.8788L432.114 49.6109C441.305 50.894 450.288 53.3759 458.834 56.9932L457.042 56.2372C461.373 58.0761 465.581 60.1901 469.642 62.5664C471.671 63.7558 473.66 65.01 475.61 66.3289C476.532 66.9533 477.445 67.5916 478.348 68.2439C478.799 68.57 479.248 68.8996 479.694 69.2327C479.942 69.4177 480.188 69.6053 480.435 69.7908C481.475 70.5698 479.004 68.6626 480.093 69.5242C483.739 72.3887 487.202 75.4792 490.461 78.7774C492.062 80.4074 493.607 82.0892 495.098 83.8226C495.862 84.7121 496.611 85.6145 497.344 86.5301C497.709 86.9851 498.949 88.6311 497.429 86.6147C497.8 87.1076 498.176 87.5971 498.543 88.0935C501.703 92.371 504.51 96.8987 506.935 101.632C508.728 105.129 513.922 106.434 517.196 104.322C518.879 103.287 520.098 101.642 520.599 99.731C521.1 97.8197 520.845 95.7888 519.887 94.0608Z" fill="#008BFD"/>
<path d="M95.2488 154C101.324 154 106.249 149.075 106.249 143C106.249 136.925 101.324 132 95.2488 132C89.1736 132 84.2488 136.925 84.2488 143C84.2488 149.075 89.1736 154 95.2488 154Z" fill="#008BFD"/>
<path d="M227.249 274C233.324 274 238.249 269.075 238.249 263C238.249 256.925 233.324 252 227.249 252C221.174 252 216.249 256.925 216.249 263C216.249 269.075 221.174 274 227.249 274Z" fill="#008BFD"/>
<path d="M728.249 274C734.324 274 739.249 269.075 739.249 263C739.249 256.925 734.324 252 728.249 252C722.174 252 717.249 256.925 717.249 263C717.249 269.075 722.174 274 728.249 274Z" fill="#008BFD"/>
<path d="M755.249 134C761.324 134 766.249 129.075 766.249 123C766.249 116.925 761.324 112 755.249 112C749.174 112 744.249 116.925 744.249 123C744.249 129.075 749.174 134 755.249 134Z" fill="#008BFD"/>
<path d="M723.249 32C729.324 32 734.249 27.0751 734.249 21C734.249 14.9249 729.324 10 723.249 10C717.174 10 712.249 14.9249 712.249 21C712.249 27.0751 717.174 32 723.249 32Z" fill="#008BFD"/>
<path d="M264.249 123C264.242 125.81 263.156 128.51 261.214 130.541C259.272 132.572 256.624 133.778 253.817 133.911C251.011 134.044 248.26 133.093 246.136 131.254C244.011 129.416 242.674 126.831 242.402 124.034C242.13 121.237 242.944 118.443 244.675 116.23C246.406 114.016 248.921 112.553 251.701 112.143C254.481 111.732 257.312 112.407 259.608 114.025C261.905 115.644 263.491 118.084 264.039 120.84C264.18 121.551 264.25 122.275 264.249 123Z" fill="#008BFD"/>
<path d="M484.249 64C490.324 64 495.249 59.0751 495.249 53C495.249 46.9249 490.324 42 484.249 42C478.174 42 473.249 46.9249 473.249 53C473.249 59.0751 478.174 64 484.249 64Z" fill="#008BFD"/>
<path d="M375.249 53.0002C375.242 55.81 374.156 58.5097 372.214 60.5407C370.272 62.5716 367.624 63.7784 364.817 63.9112C362.011 64.044 359.26 63.0927 357.136 61.2542C355.011 59.4156 353.674 56.8306 353.402 54.0339C353.13 51.2373 353.944 48.4432 355.675 46.2298C357.406 44.0164 359.921 42.5531 362.701 42.1428C365.481 41.7325 368.312 42.4065 370.608 44.0255C372.905 45.6444 374.491 48.0842 375.039 50.8402C375.18 51.5515 375.25 52.275 375.249 53.0002Z" fill="#008BFD"/>
<path d="M233.249 21.0002C233.242 23.81 232.156 26.5097 230.214 28.5407C228.272 30.5716 225.624 31.7784 222.817 31.9112C220.011 32.044 217.26 31.0927 215.136 29.2542C213.011 27.4156 211.674 24.8306 211.402 22.0339C211.13 19.2373 211.944 16.4432 213.675 14.2298C215.406 12.0164 217.921 10.5531 220.701 10.1428C223.481 9.73249 226.312 10.4065 228.608 12.0255C230.905 13.6444 232.491 16.0842 233.039 18.8402C233.18 19.5515 233.25 20.275 233.249 21.0002Z" fill="#008BFD"/>
<path d="M599.249 158C605.324 158 610.249 153.075 610.249 147C610.249 140.925 605.324 136 599.249 136C593.174 136 588.249 140.925 588.249 147C588.249 153.075 593.174 158 599.249 158Z" fill="#008BFD"/>
<path d="M426.249 58C435.085 58 442.249 50.8366 442.249 42C442.249 33.1634 435.085 26 426.249 26C417.412 26 410.249 33.1634 410.249 42C410.249 50.8366 417.412 58 426.249 58Z" fill="#008BFD"/>
</g>
<defs>
<clipPath id="clip0_42_1328">
<rect width="860" height="275" fill="white"/>
</clipPath>
</defs>
</svg>
