<svg width="137" height="139" viewBox="0 0 137 139" fill="none" xmlns="http://www.w3.org/2000/svg">
<path d="M40.1218 30.8413C56.1473 24.6221 74.1803 32.5715 80.3992 48.5962L82.0271 52.7915L86.2224 51.1636C102.248 44.945 120.281 52.8943 126.5 68.9194C132.719 84.9447 124.769 102.977 108.744 109.197V109.198C107.018 109.867 105.257 110.366 103.476 110.718L103.09 110.794L102.721 110.937L45.7947 133.028L23.2722 74.9946L23.741 74.813L22.2019 70.6587C16.3075 54.7488 24.2509 37.0003 40.1218 30.8413Z" stroke="#FF4F4F" stroke-width="9"/>
<path d="M126.422 20.6777C124.964 16.9193 120.734 15.055 116.976 16.5135C113.254 17.9582 111.391 22.1209 112.774 25.8522L112.664 25.8945L117.946 39.5045L130.469 34.6442C130.884 34.5623 131.296 34.4459 131.703 34.2877C135.462 32.829 137.326 28.6002 135.868 24.8418C134.41 21.0834 130.18 19.2191 126.422 20.6777Z" fill="#FF4F4F"/>
<path d="M8.54746 7.08746C4.24916 6.68434 0.437808 9.84195 0.0346816 14.1402C-0.364662 18.3978 2.73027 22.1754 6.96615 22.6385L6.95446 22.7632L22.5199 24.2231L23.8633 9.90007C23.9833 9.46427 24.0693 9.01308 24.1129 8.54746C24.5161 4.24916 21.3584 0.437895 17.0601 0.034682C12.7618 -0.368445 8.95058 2.78917 8.54746 7.08746Z" fill="#FF4F4F"/>
</svg>
