<svg width="344" height="559" viewBox="0 0 344 559" fill="none" xmlns="http://www.w3.org/2000/svg">
<path d="M196.704 156.313C181.409 116.9 137.058 97.3479 97.6437 112.644C58.6038 127.794 39.0723 171.449 53.5694 210.578L52.4261 211.022L107.817 353.752L239.155 302.783C243.497 301.924 247.826 300.701 252.095 299.044C291.509 283.748 311.061 239.397 295.765 199.983C280.469 160.569 236.118 141.018 196.704 156.313Z" fill="#FF4F4F"/>
<path d="M283.683 89.5914C281.867 84.91 276.599 82.5878 271.918 84.4045C267.281 86.204 264.961 91.3891 266.683 96.0367L266.547 96.0894L273.126 113.042L288.725 106.988C289.241 106.886 289.755 106.741 290.262 106.544C294.944 104.727 297.266 99.4596 295.449 94.7782C293.633 90.0968 288.365 87.7746 283.683 89.5914Z" fill="#FF4F4F"/>
<path d="M62.9286 63.4782C57.929 63.0093 53.4958 66.6821 53.0269 71.6817C52.5624 76.6339 56.1623 81.0279 61.0893 81.5665L61.0757 81.7115L79.1808 83.4097L80.7434 66.7497C80.8829 66.2428 80.9829 65.718 81.0337 65.1764C81.5026 60.1768 77.8298 55.7437 72.8302 55.2747C67.8306 54.8058 63.3975 58.4786 62.9286 63.4782Z" fill="#FF4F4F"/>
<path d="M125.991 500.713L127.877 513.998V514.032L128.5 518.452L129.51 525.55V525.558L129.931 528.547L130.562 532.993L136.203 532.875L137.887 532.833L138.771 532.816L138.687 528.892L138.477 518.486L138.098 500.46H138.022L136.338 500.494L129.611 500.637L127.927 500.67L125.991 500.713Z" fill="#FFB6B6"/>
<path d="M112.865 546.632C112.915 548.661 114.591 550.269 116.611 550.227L119.306 550.168L120.99 550.134L127.717 550L129.409 549.966L132.928 549.89L135.614 544.013L136.145 546.531V546.539L136.835 549.806L137.82 549.789L142.99 549.68L140.834 528.976L138.687 528.892L137.904 528.858L136.22 528.791L129.939 528.547H129.931L129.493 528.53L127.809 528.463L127.11 528.438L127.237 534.314L121.04 538.785L119.348 540.006L114.389 543.584C113.412 544.291 112.84 545.428 112.865 546.632Z" fill="#68676C"/>
<path d="M191.275 499.75L195.948 512.329L195.955 512.362L197.506 516.548L200.005 523.268L200.007 523.276L201.055 526.107L202.619 530.315L208.105 528.999L209.741 528.599L210.602 528.394L209.683 524.579L207.261 514.456L203.051 496.924L202.977 496.94L201.339 497.332L194.796 498.905L193.158 499.297L191.275 499.75Z" fill="#FFB6B6"/>
<path d="M188.233 547.412C188.715 549.384 190.694 550.598 192.659 550.126L195.279 549.495L196.917 549.103L203.461 547.539L205.108 547.145L208.53 546.321L209.902 540.007L210.957 542.354L210.959 542.362L212.329 545.407L213.288 545.181L218.315 543.972L211.799 524.204L209.684 524.579L208.911 524.712L207.252 525.005L201.063 526.105L201.055 526.107L200.623 526.183L198.964 526.476L198.276 526.6L199.651 532.315L194.549 538.004L193.156 539.557L189.073 544.109C188.269 545.008 187.952 546.241 188.233 547.412Z" fill="#68676C"/>
<path d="M139.97 251.181L134.113 275.932C151.772 285.714 169.22 288.928 176.799 277.262L186.716 255.543L139.97 251.181Z" fill="#FFB6B6"/>
<path d="M175.356 277.464C174.345 284.245 159.681 270.803 134.358 275.307L117.096 332.847V514.82L149.463 516.259L141.551 419.878L157.734 374.924L152.7 418.08L188.716 516.259H214.814L187.224 428.869L191.54 351.908C191.54 351.908 201.609 321.699 183.628 297.244L175.356 277.464Z" fill="#68676C"/>
<path d="M180.391 272.429L135.22 261.514L134.926 247.181C134.926 247.181 127.051 239.807 134.967 226.723L154.757 194.015L156.59 187.848L171.95 185.137L188.423 202.68L191.172 246.971L180.391 272.429Z" fill="#E6E6E6"/>
<path d="M121.931 178.623L107.152 203.749L96.4749 200.252L115.259 174.523C114.896 173.439 114.829 172.241 115.14 171.052C115.991 167.794 119.321 165.843 122.579 166.694C125.836 167.545 127.787 170.875 126.936 174.132C126.3 176.57 124.275 178.275 121.931 178.623Z" fill="#FFB6B6"/>
<path d="M169.506 213.174L171.565 203.784C171.565 203.784 169.959 197.696 158.873 198.06C147.787 198.423 109.985 203.503 109.985 203.503L113.995 197.219L115.12 191.177L104.328 187.969L99.136 191.767L97.6621 195.719L98.6204 197.011L95.8746 199.42C93.1214 206.186 96.1743 213.921 102.806 216.982L105.509 218.874L109.198 220.102L113.226 218.86L169.506 213.174Z" fill="#E6E6E6"/>
<path d="M207.48 307.734L197.701 280.273L207.237 274.331L214.906 305.25C215.971 305.668 216.932 306.386 217.645 307.387C219.596 310.13 218.954 313.936 216.211 315.888C213.468 317.84 209.662 317.198 207.71 314.455C206.25 312.402 206.242 309.754 207.48 307.734Z" fill="#FFB6B6"/>
<path d="M174.79 205.141L182.907 199.991C182.907 199.991 189.178 199.415 192.631 209.956C196.085 220.497 205.379 264.129 205.379 264.129L208.953 269.338L209.233 270.922L212.366 275.373L211.239 276.983L215.496 279.334L199.594 288.513L194.288 279.812L195.171 275.488L192.469 273.596L190.052 270.551L189.84 266.34L174.79 205.141Z" fill="#E6E6E6"/>
<path d="M152.25 175.448L161.61 183.353L152.219 154.214L150.826 155.248C149.374 156.325 148.642 158.121 148.928 159.907L152.25 175.448Z" fill="#2F2E41"/>
<path d="M164.216 181.976C172.869 181.976 179.883 174.962 179.883 166.309C179.883 157.657 172.869 150.643 164.216 150.643C155.564 150.643 148.55 157.657 148.55 166.309C148.55 174.962 155.564 181.976 164.216 181.976Z" fill="#FFB6B6"/>
<path d="M174.879 197.469C174.879 197.469 166.12 197.918 156.721 196.1C156.01 193.94 155.99 191.548 156.727 189.394C156.088 191.07 150.827 197.469 150.827 197.469C151.621 190.434 151.537 184.942 155.085 180.423C160.734 173.24 153.533 165.505 149.292 157.861C148.834 155.766 149.79 153.61 151.655 152.544C151.66 150.256 162.65 143.273 170.066 147.49C176.397 144.254 190.049 153.114 191.483 161.239C199.079 166.352 201.775 196.46 193.113 192.759L174.879 197.469Z" fill="#2F2E41"/>
</svg>
