<svg width="915" height="502" viewBox="0 0 915 502" fill="none" xmlns="http://www.w3.org/2000/svg">
<path d="M706.845 343.028L613.287 426.181L540.528 291.047L706.845 249.47V343.028Z" fill="#ED9DA0"/>
<path d="M259.865 124.729C259.865 124.729 289.891 166.306 467.759 155.911L571.71 311.839L641.369 390.21C652.31 402.527 652.93 421.204 642.189 433.69C635.662 441.268 626.277 445.25 613.289 436.579C613.289 436.579 613.289 488.55 561.318 467.761C561.318 467.761 540.53 509.338 498.953 488.549C498.953 488.549 498.953 509.337 467.771 498.943C436.589 488.549 270.261 353.425 270.261 353.425L197.5 301.451L259.865 124.729Z" fill="#9F616A"/>
<path d="M634.075 176.711C634.075 176.711 589.156 176.711 544.742 156.543C504.353 138.225 457.322 140.558 420.054 164.604C389.681 184.204 363.364 216.659 363.854 270.259C363.854 270.259 404.275 311.836 447.007 228.682H478.189C478.189 228.682 508.215 332.634 592.535 322.219C676.855 311.804 696.488 301.43 696.488 301.43L634.075 176.711Z" fill="#ED9DA0"/>
<path d="M361.978 382.767L357.003 377.792C348.329 369.118 334.267 369.118 325.593 377.792L299.832 403.553C291.158 412.227 291.158 426.289 299.832 434.963L304.807 439.938C313.48 448.611 327.543 448.611 336.217 439.938L361.978 414.177C370.651 405.503 370.651 391.441 361.978 382.767Z" fill="#ED9DA0"/>
<path d="M328.475 343.498L323.5 338.523C314.826 329.85 300.764 329.85 292.09 338.523L266.329 364.285C257.655 372.958 257.655 387.021 266.329 395.694L271.304 400.669C279.978 409.343 294.04 409.343 302.714 400.669L328.475 374.908C337.149 366.235 337.149 352.172 328.475 343.498Z" fill="#ED9DA0"/>
<path d="M408.749 408.744L403.774 403.769C395.1 395.096 381.038 395.096 372.364 403.769L341.408 434.725C332.735 443.399 332.735 457.461 341.408 466.135L346.383 471.11C355.057 479.783 369.12 479.783 377.793 471.11L408.749 440.154C417.422 431.481 417.422 417.418 408.749 408.744Z" fill="#ED9DA0"/>
<path d="M433.123 444.67L429.649 441.196C423.592 435.139 413.772 435.139 407.715 441.196L388.07 460.841C382.013 466.898 382.013 476.718 388.07 482.775L391.544 486.249C397.601 492.306 407.421 492.306 413.479 486.249L433.123 466.604C439.18 460.547 439.18 450.727 433.123 444.67Z" fill="#ED9DA0"/>
<path d="M810.786 363.816L717.239 405.393L623.681 176.71L706.845 145.528L810.786 363.816Z" fill="#646464"/>
<path d="M103.952 311.844L197.502 353.419L291.06 124.737L207.893 93.5439L103.952 311.844Z" fill="#646464"/>
<path d="M0 0L207.893 93.547L95.336 350.599L0 332.168V0Z" fill="#B1B1B1"/>
<path d="M914.738 51.9707L706.845 145.531L814.309 382.497L914.739 363.12L914.738 51.9707Z" fill="#B1B1B1"/>
</svg>
