<svg width="700" height="226" viewBox="0 0 700 226" fill="none" xmlns="http://www.w3.org/2000/svg">
<path d="M212.318 226C326.291 226 418.685 201.823 418.685 172C418.685 142.177 326.291 118 212.318 118C98.345 118 5.95166 142.177 5.95166 172C5.95166 201.823 98.345 226 212.318 226Z" fill="#6B4C31"/>
<path d="M47.1281 159C47.1281 159 8.86459 145.19 1.64549 146.21C-5.57361 147.23 12.5822 98.8501 24.6736 104.75C36.7651 110.65 52.887 126.17 62.1027 104.25C71.3184 82.3301 76.4888 70.5301 87.7161 71.7101C98.9433 72.8901 114.492 62.2801 125.711 71.7101C136.931 81.1401 144.813 92.7701 160.309 92.2701C175.806 91.7701 190.497 44.5801 202.566 63.4601C214.635 82.3401 229.111 99.6101 240.457 93.3301C251.804 87.0501 264.752 96.4901 275.115 107.11C285.478 117.73 303.619 113.01 310.525 104.75C317.431 96.4901 322.624 90.5901 337.3 91.7501C351.977 92.9101 398.622 107.09 415.899 124.75C433.175 142.41 393.444 164.87 374.439 164.87C355.434 164.87 351.985 171.95 335.572 182.57C319.16 193.19 292.362 176.67 273.386 194.37C254.411 212.07 230.176 184.93 197.396 194.37C164.616 203.81 171.485 216.78 152.479 207.37C133.474 197.96 140.388 194.37 112.748 192.03C85.1086 189.69 54.8836 197.93 52.291 182.59C49.6984 167.25 32.444 163.71 22.0735 158.99C11.7031 154.27 47.1281 159 47.1281 159Z" fill="#6B4C31"/>
<path d="M314.174 169.561C314.174 169.561 279.564 160.401 273.044 161.071C266.524 161.741 282.934 129.731 293.864 133.631C304.794 137.531 319.384 147.811 327.714 133.301C336.044 118.791 340.714 110.981 350.884 111.761C361.054 112.541 375.094 105.511 385.244 111.761C395.394 118.011 402.514 125.701 416.534 125.371C430.554 125.041 443.824 93.8006 454.754 106.291C465.684 118.781 478.754 130.231 489.014 126.071C499.274 121.911 511.014 128.161 520.364 135.191C529.714 142.221 546.134 139.101 552.364 133.631C558.594 128.161 563.304 124.261 576.584 125.041C589.864 125.821 632.034 135.191 647.654 146.911C663.274 158.631 627.344 173.461 610.164 173.461C592.984 173.461 589.854 178.151 575.014 185.181C560.174 192.211 535.964 181.271 518.784 192.991C501.604 204.711 479.734 186.741 450.054 192.991C420.374 199.241 426.624 207.831 409.434 201.581C392.244 195.331 398.504 192.991 373.514 191.431C348.524 189.871 321.184 195.331 318.834 185.181C316.484 175.031 300.834 172.681 291.504 169.561C282.174 166.441 314.174 169.561 314.174 169.561Z" fill="#6B4C31"/>
<path d="M600.814 61.58L587.414 102.65L586.834 104.44L564.404 173.2L526.004 199.15L339.534 120.74L357.204 49.28L358.144 45.52L367.604 7.26999L367.624 7.17999L425.024 0L600.814 61.58Z" fill="#F8CE6D"/>
<path opacity="0.1" d="M600.814 61.58L564.404 173.2L526.004 199.15L561.254 77.34L367.604 7.26999L367.624 7.17999L425.024 0L600.814 61.58Z" fill="black"/>
<path opacity="0.1" d="M409.443 14.9298L406.354 13.0498L437.333 9.7998L570.053 56.7198L566.313 58.6798L435.383 12.5098L409.443 14.9298Z" fill="black"/>
<path opacity="0.1" d="M587.414 102.65L548.654 120.88L358.144 45.52L357.204 49.28L547.884 123.56L586.834 104.44" fill="black"/>
<path d="M381.153 34.2491C382.246 30.7311 380.053 26.9231 376.255 25.7441C372.457 24.5651 368.493 26.4611 367.401 29.9791C366.309 33.4971 368.502 37.3051 372.299 38.4841C376.097 39.6631 380.061 37.7671 381.153 34.2491Z" fill="#3F3D56"/>
<path d="M549.064 99.2642C550.156 95.7452 547.963 91.9382 544.166 90.7582C540.368 89.5792 536.404 91.4752 535.312 94.9932C534.219 98.5112 536.412 102.319 540.21 103.498C544.007 104.678 547.971 102.782 549.064 99.2642Z" fill="#3F3D56"/>
<path d="M522.528 180.008C523.62 176.49 521.427 172.682 517.63 171.503C513.832 170.324 509.868 172.22 508.776 175.738C507.683 179.256 509.876 183.064 513.674 184.243C517.471 185.422 521.436 183.526 522.528 180.008Z" fill="#3F3D56"/>
<path d="M360.61 112.262C361.702 108.744 359.509 104.936 355.712 103.756C351.914 102.577 347.95 104.473 346.858 107.991C345.765 111.509 347.958 115.317 351.756 116.496C355.554 117.676 359.518 115.78 360.61 112.262Z" fill="#3F3D56"/>
<path d="M390.313 11.38C389.913 12.68 386.703 11.38 382.623 10.1C378.543 8.82004 375.363 7.42004 375.763 6.10004C376.163 4.78004 380.004 4.10003 384.084 5.37003C388.164 6.64003 390.723 10.08 390.313 11.38Z" fill="#3F3D56"/>
<path d="M410.855 6.69498C411.258 5.39698 408.583 3.41398 404.88 2.26398C401.178 1.11398 397.85 1.23398 397.447 2.53098C397.044 3.82898 399.719 5.81298 403.421 6.96298C407.124 8.11198 410.452 7.99198 410.855 6.69498Z" fill="#3F3D56"/>
<path d="M476.674 42.9999C476.274 44.2999 472.264 43.0999 468.374 41.8899C464.484 40.6799 461.454 39.3299 461.854 38.0299C462.254 36.7299 465.944 36.0299 469.854 37.1999C473.764 38.3699 477.094 41.6799 476.674 42.9999Z" fill="#3F3D56"/>
<path d="M559.633 72.7902C559.183 74.2502 554.923 72.9802 550.793 71.7002C546.663 70.4202 543.453 68.9502 543.903 67.4902C544.353 66.0302 548.303 65.1402 552.433 66.4202C556.563 67.7002 560.093 71.3302 559.633 72.7902Z" fill="#3F3D56"/>
<path d="M583.893 69.2902C583.433 70.7502 579.183 69.4802 575.053 68.2002C570.923 66.9202 567.703 65.4502 568.163 63.9902C568.623 62.5302 572.563 61.6402 576.693 62.9202C580.823 64.2002 584.343 67.8302 583.893 69.2902Z" fill="#3F3D56"/>
<path d="M595.854 62.1601C595.394 63.6201 591.854 62.5802 588.474 61.5202C585.094 60.4602 582.474 59.1801 582.884 57.7201C583.294 56.2601 586.704 55.1802 590.114 56.2402C593.524 57.3002 596.304 60.7001 595.854 62.1601Z" fill="#3F3D56"/>
<path d="M515.744 32.9398C515.384 34.0998 511.744 33.0298 508.284 31.9398C504.824 30.8498 502.054 29.6298 502.424 28.4698C502.794 27.3098 506.094 26.6398 509.594 27.7198C513.094 28.7998 516.094 31.7698 515.744 32.9398Z" fill="#3F3D56"/>
<path d="M437.887 5.52588C438.29 4.22888 436.026 2.37288 432.829 1.37988C429.633 0.387881 426.715 0.634883 426.312 1.93188C425.91 3.22988 428.174 5.08589 431.37 6.07889C434.567 7.07089 437.484 6.82388 437.887 5.52588Z" fill="#3F3D56"/>
<path opacity="0.1" d="M474.093 82.2501C474.519 80.8771 474.464 79.3991 473.937 78.0601C473.41 76.7221 472.442 75.6041 471.193 74.8901C471.788 74.2141 472.235 73.4201 472.503 72.5601C472.828 71.5161 472.876 70.4061 472.643 69.3381C472.41 68.2701 471.904 67.2811 471.175 66.4671C470.445 65.6531 469.517 65.0421 468.481 64.6931C467.445 64.3451 466.336 64.2721 465.263 64.4801C465.685 63.0291 465.572 61.4741 464.946 60.0991C464.319 58.7231 463.221 57.6171 461.849 56.9821C460.477 56.3471 458.924 56.2251 457.47 56.6371C456.015 57.0501 454.757 57.9701 453.923 59.2301C453.11 58.6421 452.169 58.2561 451.177 58.1041C450.185 57.9521 449.171 58.0391 448.219 58.3561C447.268 58.6741 446.405 59.2141 445.703 59.9311C445.001 60.6481 444.48 61.5221 444.183 62.4801C444.183 62.6201 444.113 62.7501 444.083 62.8801L443.863 62.9901C443.161 62.3581 442.326 61.8911 441.42 61.6241C440.514 61.3571 439.559 61.2971 438.627 61.4471C437.694 61.5981 436.807 61.9551 436.031 62.4941C435.255 63.0331 434.609 63.7381 434.142 64.5591C433.674 65.3801 433.397 66.295 433.33 67.238C433.263 68.18 433.408 69.1251 433.754 70.0041C434.101 70.8831 434.64 71.673 435.332 72.316C436.024 72.959 436.851 73.439 437.753 73.72C438.079 73.824 438.414 73.8971 438.753 73.9401L438.833 76.2601L469.093 88.6301L468.893 86.6301C470.086 86.4691 471.209 85.9721 472.13 85.1961C473.051 84.4211 473.732 83.3991 474.093 82.2501Z" fill="black"/>
<path opacity="0.1" d="M467.024 102.11C466.377 103.395 465.311 104.421 464.002 105.019C462.693 105.617 461.219 105.752 459.824 105.4C459.791 106.298 459.562 107.179 459.154 107.98C458.781 108.722 458.266 109.384 457.638 109.927C457.009 110.47 456.28 110.884 455.492 111.145C454.703 111.406 453.871 111.509 453.042 111.448C452.214 111.387 451.406 111.163 450.664 110.79C449.737 110.321 448.938 109.635 448.334 108.79C447.627 110.121 446.467 111.155 445.064 111.706C443.661 112.257 442.108 112.289 440.684 111.795C439.259 111.302 438.059 110.315 437.298 109.014C436.537 107.713 436.266 106.183 436.534 104.7C435.838 104.604 435.162 104.395 434.534 104.08C433.038 103.327 431.901 102.012 431.374 100.421C430.847 98.8309 430.973 97.0969 431.724 95.5999L431.924 95.2299L431.844 94.9999C430.929 94.9719 430.031 94.7429 429.214 94.3299C427.712 93.5689 426.573 92.2419 426.049 90.6409C425.525 89.0409 425.658 87.2969 426.419 85.7949C427.18 84.2919 428.507 83.1539 430.108 82.6299C431.708 82.1059 433.452 82.2389 434.954 82.9999C435.25 83.1479 435.534 83.3189 435.804 83.5099L437.464 81.8999L467.904 94.0699L466.374 95.3699C467.111 96.3159 467.563 97.4519 467.678 98.6459C467.793 99.8389 467.566 101.04 467.024 102.11Z" fill="black"/>
<path opacity="0.1" d="M448.443 68.6399L441.094 92.4599C440.552 94.2059 440.698 96.0939 441.503 97.7359C442.308 99.3779 443.71 100.65 445.423 101.29C446.334 101.629 447.305 101.778 448.276 101.729C449.247 101.68 450.196 101.434 451.068 101.005C451.941 100.577 452.718 99.9749 453.349 99.2359C453.981 98.4979 454.455 97.6379 454.743 96.7099L462.094 72.8799C462.375 71.9559 462.465 70.9839 462.36 70.0229C462.254 69.0629 461.955 68.1339 461.48 67.2919C461.005 66.4509 460.365 65.7149 459.597 65.1279C458.83 64.5419 457.951 64.1169 457.014 63.8799C455.248 63.4299 453.375 63.6719 451.782 64.5569C450.189 65.4419 448.994 66.9029 448.443 68.6399Z" fill="black"/>
<path d="M448.764 70.09L442.094 91.45C441.605 93.016 441.736 94.709 442.46 96.181C443.184 97.653 444.445 98.791 445.984 99.36C446.801 99.663 447.67 99.796 448.54 99.751C449.41 99.707 450.261 99.485 451.043 99.101C451.824 98.716 452.519 98.176 453.085 97.514C453.651 96.852 454.076 96.082 454.334 95.25L460.964 73.88C461.221 73.047 461.306 72.171 461.214 71.305C461.122 70.439 460.855 69.6 460.428 68.84C460.001 68.081 459.425 67.416 458.733 66.886C458.041 66.357 457.249 65.973 456.404 65.76C454.819 65.376 453.147 65.61 451.728 66.414C450.309 67.218 449.249 68.533 448.764 70.09Z" fill="#3F3D56"/>
<path d="M361.813 180.49C361.813 180.49 327.204 171.33 320.684 172.01C314.164 172.69 330.573 140.66 341.503 144.57C352.433 148.48 367.024 158.74 375.354 144.23C383.684 129.72 388.354 121.92 398.524 122.7C408.694 123.48 422.733 116.45 432.883 122.7C443.033 128.95 450.153 136.63 464.173 136.3C478.193 135.97 491.464 104.73 502.404 117.23C513.344 129.73 526.404 141.16 536.664 137.01C546.924 132.86 558.663 139.1 568.003 146.13C577.343 153.16 593.784 150.03 600.004 144.57C606.224 139.11 610.934 135.19 624.214 135.97C637.494 136.75 679.664 146.13 695.284 157.84C710.904 169.55 674.984 184.4 657.794 184.4C640.604 184.4 637.494 189.08 622.654 196.11C607.814 203.14 583.594 192.21 566.414 203.92C549.234 215.63 527.363 197.68 497.683 203.92C468.003 210.16 474.254 218.76 457.074 212.52C439.894 206.28 446.134 203.92 421.144 202.36C396.154 200.8 368.813 206.27 366.473 196.11C364.133 185.95 348.524 183.62 339.144 180.49C329.764 177.36 361.813 180.49 361.813 180.49Z" fill="#6B4C31"/>
<path d="M94.2779 172.51C94.2779 172.51 59.0266 158.7 52.3758 159.72C45.725 160.74 62.4515 112.36 73.5911 118.26C84.7306 124.16 99.5834 139.68 108.074 117.76C116.564 95.8399 121.327 84.0399 131.671 85.2199C142.014 86.3999 156.338 75.7899 166.675 85.2199C177.011 94.6499 184.273 106.28 198.549 105.78C212.825 105.28 226.36 58.0899 237.479 76.9699C248.598 95.8499 261.934 113.12 272.387 106.84C282.841 100.56 294.769 110 304.317 120.62C313.864 131.24 330.577 126.52 336.939 118.26C343.302 110 348.086 104.1 361.607 105.26C375.128 106.42 418.101 120.6 434.017 138.26C449.934 155.92 413.331 178.38 395.822 178.38C378.313 178.38 375.135 185.46 360.014 196.08C344.894 206.7 320.206 190.18 302.724 207.88C285.243 225.58 262.916 198.44 232.716 207.88C202.516 217.32 208.844 230.29 191.336 220.88C173.827 211.47 180.196 207.88 154.732 205.54C129.268 203.2 101.423 211.44 99.0343 196.1C96.6458 180.76 80.7498 177.22 71.1957 172.5C61.6416 167.78 94.2779 172.51 94.2779 172.51Z" fill="#6B4C31"/>
</svg>
