<svg width="83" height="83" viewBox="0 0 83 83" fill="none" xmlns="http://www.w3.org/2000/svg">
<path d="M54.4994 77.3068L21.0732 61.5226C20.3584 61.1869 19.7288 60.6937 19.2317 60.08C18.7347 59.4662 18.3831 58.7479 18.2032 57.9789C18.022 57.2266 18.0136 56.4431 18.1785 55.6872C18.3434 54.9312 18.6774 54.2224 19.1554 53.614C28.8379 41.2391 35.4865 26.7679 38.5682 11.3603C38.801 10.1805 39.4359 9.11798 40.3645 8.35385C41.2931 7.58973 42.458 7.1713 43.6606 7.16992C60.7083 7.22792 73.4494 13.4527 81.5285 25.6692C81.9545 26.3046 82.2368 27.0253 82.3557 27.781C82.4746 28.5368 82.4272 29.3093 82.2169 30.0449C77.5388 46.1687 70.4203 61.4815 61.1088 75.4514C60.4176 76.5075 59.3672 77.2773 58.152 77.6185C56.9368 77.9596 55.6392 77.8489 54.4994 77.3068Z" fill="#9A95FF"/>
<path d="M64.3325 55.1684L38.7743 43.0996C38.1385 42.7993 37.648 42.2588 37.4107 41.5969C37.1734 40.9349 37.2087 40.2059 37.509 39.57C37.8092 38.9342 38.3498 38.4436 39.0117 38.2063C39.6736 37.969 40.4027 38.0044 41.0385 38.3046L66.5966 50.3734C66.9115 50.5221 67.194 50.7313 67.4279 50.9892C67.6619 51.247 67.8428 51.5484 67.9603 51.8761C68.0778 52.2039 68.1296 52.5516 68.1127 52.8994C68.0959 53.2471 68.0107 53.5881 67.862 53.903C67.7133 54.2178 67.5041 54.5003 67.2463 54.7343C66.9885 54.9683 66.687 55.1492 66.3593 55.2667C66.0315 55.3842 65.6838 55.436 65.3361 55.4191C64.9883 55.4022 64.6473 55.317 64.3325 55.1684Z" fill="white"/>
<path d="M68.3031 46.7611L42.745 34.6924C42.1092 34.3921 41.6187 33.8515 41.3814 33.1896C41.1441 32.5277 41.1794 31.7986 41.4797 31.1628C41.7799 30.5269 42.3205 30.0364 42.9824 29.7991C43.6443 29.5618 44.3734 29.5972 45.0092 29.8974L70.5673 41.9662C71.2032 42.2664 71.6937 42.807 71.931 43.4689C72.1684 44.1309 72.133 44.8599 71.8327 45.4958C71.5325 46.1316 70.992 46.6222 70.33 46.8595C69.6681 47.0968 68.939 47.0613 68.3031 46.7611Z" fill="white"/>
<path d="M51.7603 74.8611L20.6547 81.4881C19.9905 81.6311 19.3024 81.6219 18.6423 81.461C17.9821 81.3002 17.3669 80.9919 16.8429 80.5594C16.3266 80.1391 15.9123 79.6073 15.631 79.004C15.3497 78.4006 15.2087 77.7414 15.2185 77.0758C15.3961 63.3728 12.3149 49.8237 6.22892 37.5451C5.83679 36.7348 5.69618 35.8257 5.82517 34.9348C5.95417 34.044 6.34686 33.2121 6.9527 32.5463C20.4964 17.6351 33.1637 15.2853 44.6035 25.5638C45.1205 26.0332 45.5216 26.616 45.7755 27.2666C51.1678 40.9758 54.3867 55.4428 55.3161 70.1451C55.3938 71.2282 55.0764 72.3028 54.4226 73.1699C53.7688 74.0369 52.823 74.6378 51.7603 74.8611Z" fill="#008BFD"/>
<path d="M35.4804 45.7656L24.7801 48.0453C24.1883 48.1714 23.5708 48.0572 23.0632 47.728C22.5557 47.3987 22.1998 46.8813 22.0737 46.2896C21.9476 45.6979 22.0618 45.0804 22.391 44.5728C22.7203 44.0653 23.2377 43.7093 23.8294 43.5833L34.5298 41.3036C35.1209 41.1789 35.7374 41.2939 36.2439 41.6232C36.7504 41.9525 37.1056 42.4694 37.2315 43.0603C37.3574 43.6512 37.2437 44.2679 36.9154 44.7751C36.5871 45.2823 36.0711 45.6385 35.4804 45.7656Z" fill="white"/>
<path d="M37.1474 53.5898L26.447 55.8695C25.8553 55.9956 25.2378 55.8815 24.7302 55.5522C24.2227 55.2229 23.8668 54.7055 23.7407 54.1138C23.6146 53.5221 23.7288 52.9046 24.058 52.3971C24.3873 51.8895 24.9047 51.5336 25.4964 51.4075L36.1968 49.1278C36.7879 49.0031 37.4044 49.1181 37.9109 49.4474C38.4174 49.7768 38.7726 50.2936 38.8985 50.8845C39.0244 51.4754 38.9107 52.0921 38.5824 52.5993C38.2541 53.1065 37.738 53.4627 37.1474 53.5898Z" fill="white"/>
<path d="M38.8144 61.415L28.114 63.6947C27.5223 63.8208 26.9048 63.7067 26.3972 63.3774C25.8897 63.0481 25.5338 62.5307 25.4077 61.939C25.2816 61.3473 25.3958 60.7298 25.725 60.2223C26.0543 59.7147 26.5717 59.3588 27.1634 59.2327L37.8638 56.953C38.4549 56.8283 39.0714 56.9433 39.5779 57.2726C40.0844 57.602 40.4396 58.1188 40.5655 58.7097C40.6913 59.3006 40.5777 59.9173 40.2494 60.4245C39.9211 60.9317 39.405 61.2879 38.8144 61.415Z" fill="white"/>
<path d="M32.9773 20.9943C34.7786 16.4466 31.9954 11.0791 26.7608 9.00563C21.5261 6.93213 15.8223 8.93783 14.0209 13.4855C12.2196 18.0331 15.0028 23.4006 20.2374 25.4741C25.4721 27.5476 31.1759 25.5419 32.9773 20.9943Z" fill="#008BFD"/>
</svg>
