<svg width="203" height="325" viewBox="0 0 203 325" fill="none" xmlns="http://www.w3.org/2000/svg">
<path d="M155.053 133.93L137.815 305.834C112.046 319.368 85.131 312.768 72.2771 308.11C67.4003 306.351 64.5502 304.867 64.5502 304.867L39.0563 134L53.932 132.041L131.702 121.833L155.053 133.93Z" fill="#D6D6E3"/>
<path d="M115.254 4.17827L114.34 16.0683L113.261 30.0171L111.499 52.9143L110.082 71.3256L108.531 91.4456L106.477 118.087L91.2001 118.006L93.1488 100.782L95.2897 81.858L97.4953 62.3367L99.7418 42.5544L102.075 21.9304L103.774 6.88788L115.254 4.17827Z" fill="#D6D6E3"/>
<path d="M53.932 132.041L72.2771 308.11C67.4003 306.351 64.5502 304.867 64.5502 304.867L39.0563 134L53.932 132.041Z" fill="#575757"/>
<path d="M103.334 125.562L102.895 298.099L83.7527 299.194L73.1248 129.519" fill="#575757"/>
<path d="M148.227 130.394L134.372 300.917L120.13 298.596L126.677 122.494" fill="#575757"/>
<path d="M115.253 4.17848L114.34 16.0685L102.075 21.9306L103.773 6.88809L115.253 4.17848Z" fill="#008BFD"/>
<path d="M113.261 30.0173L111.499 52.9145L97.4954 62.3369L99.7419 42.5546L113.261 30.0173Z" fill="#008BFD"/>
<path d="M110.081 71.326L108.531 91.446L93.1487 100.783L95.2896 81.8584L110.081 71.326Z" fill="#008BFD"/>
<path d="M35.3276 129.395C35.3276 129.395 28.8874 147.134 40.8155 152.646L40.0318 140.558C40.0318 140.558 90.5572 113.689 155.056 133.926L155.241 147.491C155.241 147.491 164.158 146.697 163.197 137.794C162.237 128.891 162.298 124.312 162.298 124.312C162.298 124.312 104.529 92.2997 35.3276 129.395Z" fill="#D6D6E3"/>
</svg>
