<svg width="467" height="758" viewBox="0 0 467 758" fill="none" xmlns="http://www.w3.org/2000/svg">
<g clip-path="url(#clip0_41_1071)">
<path d="M445.552 511.159L439.999 732.183L438.236 757.339H363.821L361.141 708.858L339.386 524.097L445.552 511.159Z" fill="#EDBC9D"/>
<path d="M286.865 164.698C288.675 159.116 296.707 157.479 301.516 160.841C306.326 164.203 307.967 170.801 307.033 176.594C306.099 182.387 303.059 187.593 300.076 192.647C277.786 230.405 248.496 337.163 226.205 374.921C239.388 383.699 257.206 385.011 271.533 378.26C279.131 391.38 294.592 399.508 309.708 398.329C324.824 397.151 338.838 386.724 344.311 372.584C340.656 381.01 337.001 389.436 333.346 397.861C351.741 391.855 366.893 376.699 372.894 358.303C368.892 370.613 364.889 382.924 360.887 395.234C386.033 379.621 405.002 279.864 396.399 248.957C396.086 247.833 396.534 246.643 397.519 246.017L397.553 245.995C397.846 245.809 398.105 245.568 398.306 245.285C411.943 226.156 406.672 198.996 395.163 178.438C383.568 157.727 366.502 140.302 356.297 118.872C342.747 90.4198 341.463 55.461 320.03 32.3589C306.43 17.7003 286.453 10.2581 266.579 8.05112C246.706 5.84413 226.645 8.37627 206.81 10.9053L208.183 7.71541C191.114 -4.7361 166.284 -0.983093 148.817 10.9047C131.35 22.7924 119.571 41.1606 108.278 59.0173C97.9318 75.3751 87.586 91.7329 77.2402 108.091C67.107 124.112 27.7781 194.613 24.1279 213.215C20.4777 231.818 24.9561 253.269 40.0017 264.802C41.9072 254.899 43.8127 244.997 45.7181 235.094L43.918 236.65C56.6944 283.12 56.6239 351.873 14.8782 375.956C33.1711 381.302 54.0998 376.438 68.1603 363.573L41.4372 393.461C55.8689 393.21 70.1884 388.414 81.8606 379.923L61.4091 404.174L116.031 376.138L104.669 404.935C127.435 400.661 150.201 396.387 172.966 392.113" fill="#674D4D"/>
<path d="M120.125 698.862L107.534 757.173H363.351L354.141 726.241L120.125 698.862Z" fill="#674D4D"/>
<path d="M35.1585 654.991L0.0399018 698.254C0.0399018 698.254 -2.60435 757.173 35.1585 757.173C72.9214 757.173 128.76 646.764 128.76 646.764L89.4846 547.422L26.1762 531.872L35.1585 654.991Z" fill="#EDBC9D"/>
<path d="M338.969 192.128C342.12 124.503 289.852 67.1287 222.228 63.9785C154.603 60.8283 97.2275 113.096 94.0774 180.72C91.5226 235.565 125.42 283.661 174.396 301.564L190.779 459.103L316.135 364.165C316.135 364.165 291.613 329.746 279.377 291.654C313.441 271.265 336.984 234.757 338.969 192.128Z" fill="#EDBC9D"/>
<path d="M294.959 325.287C294.959 325.287 250.532 491.888 178.338 345.279L82.9175 389.54C82.9175 389.54 89.5815 640.552 109.574 676.094C109.574 676.094 88.4708 709.414 114.016 716.078C139.562 722.742 126.234 711.635 139.562 722.742C152.89 733.849 179.546 714.967 179.546 714.967C179.546 714.967 314.376 766.393 354.141 726.242V559.906C354.141 559.906 421.673 498.386 466.1 542.813C466.1 542.813 457.214 401.758 407.234 370.659C357.254 339.56 294.959 325.287 294.959 325.287Z" fill="#008BFD"/>
<path d="M103.465 401.202L82.9174 389.54C82.9174 389.54 3.50432 530.04 12.3897 550.032C21.2751 570.024 125.678 568.914 125.678 568.914L103.465 401.202Z" fill="#008BFD"/>
<path d="M205.699 10.9053C225.534 8.37625 245.595 5.84412 265.468 8.05111C285.342 10.2581 305.319 17.7003 318.919 32.3589C340.353 55.461 341.636 90.4198 355.186 118.872C365.392 140.302 382.457 157.727 394.052 178.438C405.561 198.996 410.832 226.155 397.196 245.285C396.994 245.568 396.735 245.809 396.442 245.995C395.447 246.628 394.977 247.849 395.33 248.975C404.147 277.13 391.891 310.64 366.776 326.234C370.778 313.924 374.781 301.613 378.783 289.303C372.782 307.699 353.63 387.855 335.236 393.861C338.891 385.436 342.545 377.01 346.2 368.584C340.727 382.724 326.713 393.151 311.597 394.329C296.482 395.508 281.02 387.38 273.422 374.26C259.095 381.011 241.277 379.699 228.094 370.921C250.385 333.163 276.675 230.405 298.965 192.647C301.949 187.593 304.989 182.387 305.922 176.594C306.856 170.801 305.215 164.203 300.405 160.841C295.596 157.479 287.564 159.116 285.755 164.698" fill="#674D4D"/>
<path d="M184.169 374.467L127.903 537.814C99.7139 545.067 75.035 532.46 63.5948 524.975C59.2524 522.143 56.8196 520.043 56.8196 520.043L71.2583 347.889L86.1862 349.4L164.222 357.33L184.169 374.467Z" fill="#D6D6E3"/>
<path d="M175.24 239.043L171.619 250.406L167.365 263.734L160.39 285.614L154.781 303.207L148.65 322.433L140.531 347.889L125.681 344.302L131.534 327.986L137.965 310.06L144.596 291.567L151.327 272.83L158.335 253.293L163.444 239.043H175.24Z" fill="#D6D6E3"/>
<path d="M86.1862 349.4L63.5948 524.975C59.2524 522.143 56.8196 520.043 56.8196 520.043L71.2583 347.889L86.1862 349.4Z" fill="#674D4D"/>
<path d="M135.755 354.442L95.6932 522.265L76.8118 518.933L105.445 351.354" fill="#674D4D"/>
<path d="M178.338 369.458L125.681 532.238L112.353 526.707L159.179 356.819" fill="#674D4D"/>
<path d="M175.24 239.043L171.619 250.406L158.335 253.293L163.444 239.043H175.24Z" fill="#008BFD"/>
<path d="M167.365 263.733L160.39 285.613L144.596 291.567L151.327 272.83L167.365 263.733Z" fill="#008BFD"/>
<path d="M154.781 303.207L148.65 322.433L131.534 327.986L137.965 310.06L154.781 303.207Z" fill="#008BFD"/>
<path d="M83.4631 482.903L72.9405 693.216L0.0397949 698.254L25.5907 480.13C15.5068 469.37 9.47343 453.323 10.3194 435.666C11.7997 404.769 33.7278 380.715 59.2976 381.94C84.8673 383.165 104.396 409.205 102.915 440.102C102.069 457.76 94.5289 473.156 83.4631 482.903Z" fill="#EDBC9D"/>
<path d="M287.184 164.24L170.564 70.943L86.8049 212.921V123.338L183.892 29.8481L261.639 37.6229L287.184 164.24Z" fill="#674D4D"/>
<path d="M68.6872 342.551C68.6872 342.551 58.3443 358.336 68.6872 366.441L70.7013 354.496C70.7013 354.496 126.048 339.951 184.173 374.464L181.237 387.709C181.237 387.709 190.097 388.985 191.208 380.099C192.319 371.214 193.429 366.771 193.429 366.771C193.429 366.771 144.56 322.344 68.6872 342.551Z" fill="#D6D6E3"/>
</g>
<defs>
<clipPath id="clip0_41_1071">
<rect width="466.1" height="757.339" fill="white"/>
</clipPath>
</defs>
</svg>
