<svg width="208" height="168" viewBox="0 0 208 168" fill="none" xmlns="http://www.w3.org/2000/svg">
<path d="M201.62 62.842H131.62V45.158H157.62C159.212 45.158 160.738 44.5259 161.863 43.4007C162.988 42.2754 163.62 40.7493 163.62 39.158V20C163.62 18.4087 162.988 16.8826 161.863 15.7574C160.738 14.6322 159.212 14 157.62 14H131.62V8C131.62 5.87827 130.778 3.84346 129.277 2.34317C127.777 0.842879 125.742 0 123.62 0C121.499 0 119.464 0.842879 117.964 2.34317C116.463 3.84346 115.62 5.87827 115.62 8V14H19.5264C18.2844 13.9989 17.0727 14.3832 16.0584 15.1L2.53241 24.686C1.74966 25.2403 1.11121 25.9742 0.670593 26.8262C0.229972 27.6782 0 28.6234 0 29.5825C0 30.5417 0.229972 31.4868 0.670593 32.3388C1.11121 33.1908 1.74966 33.9247 2.53241 34.479L16.0594 44.058C17.0734 44.7746 18.2848 45.1589 19.5264 45.158H115.62V62.842H45.6204C44.0291 62.842 42.503 63.4741 41.3778 64.5994C40.2526 65.7246 39.6204 67.2507 39.6204 68.842V88C39.6204 89.5913 40.2526 91.1175 41.3778 92.2427C42.503 93.3679 44.0291 94 45.6204 94H115.62V160C115.62 162.122 116.463 164.157 117.964 165.657C119.464 167.157 121.499 168 123.62 168C125.742 168 127.777 167.157 129.277 165.657C130.778 164.157 131.62 162.122 131.62 160V94H201.62C203.212 94 204.738 93.3679 205.863 92.2427C206.988 91.1175 207.62 89.5913 207.62 88V68.842C207.62 67.2507 206.988 65.7246 205.863 64.5994C204.738 63.4741 203.212 62.842 201.62 62.842Z" fill="#3F3D56"/>
<path d="M83.6201 30.5H33.6201C32.6919 30.5 31.8016 30.1313 31.1453 29.4749C30.4889 28.8185 30.1201 27.9283 30.1201 27C30.1201 26.0717 30.4889 25.1815 31.1453 24.5251C31.8016 23.8688 32.6919 23.5 33.6201 23.5H83.6201C84.5484 23.5 85.4387 23.8688 86.095 24.5251C86.7514 25.1815 87.1201 26.0717 87.1201 27C87.1201 27.9283 86.7514 28.8185 86.095 29.4749C85.4387 30.1313 84.5484 30.5 83.6201 30.5Z" fill="#6C63FF"/>
<path d="M145.62 81.5H95.6201C94.6919 81.5 93.8016 81.1313 93.1453 80.4749C92.4889 79.8185 92.1201 78.9283 92.1201 78C92.1201 77.0717 92.4889 76.1815 93.1453 75.5251C93.8016 74.8688 94.6919 74.5 95.6201 74.5H145.62C146.548 74.5 147.439 74.8688 148.095 75.5251C148.751 76.1815 149.12 77.0717 149.12 78C149.12 78.9283 148.751 79.8185 148.095 80.4749C147.439 81.1313 146.548 81.5 145.62 81.5Z" fill="white"/>
</svg>
