<svg width="941" height="434" viewBox="0 0 941 434" fill="none" xmlns="http://www.w3.org/2000/svg">
<path d="M199.491 409.814C176.968 395.136 160.591 368.752 163.943 342.078C184.224 363.135 211.299 376.34 240.378 379.356C251.597 380.478 264.192 380.559 272.159 388.537C277.116 393.501 279.222 400.756 279.331 407.771C279.439 414.785 277.753 421.69 276.079 428.503L276.49 430.205C249.625 429.212 222.014 424.492 199.491 409.814Z" fill="#F0F0F0"/>
<path d="M164.507 342.073C172.932 362.668 187.633 380.085 206.52 391.85C210.541 394.455 214.948 396.41 219.578 397.642C224.127 398.697 228.875 398.515 233.329 397.114C237.509 395.892 241.643 394.157 246.047 393.972C248.303 393.911 250.546 394.327 252.63 395.193C254.713 396.06 256.59 397.357 258.137 398.999C262.099 402.992 264.39 408.17 266.454 413.312C268.746 419.021 271.036 424.987 275.703 429.215C276.269 429.727 275.441 430.575 274.876 430.063C266.755 422.707 265.862 410.904 259.478 402.37C256.5 398.387 252.303 395.278 247.172 395.147C242.686 395.032 238.421 396.817 234.2 398.091C229.875 399.522 225.265 399.871 220.773 399.109C216.095 398.116 211.621 396.334 207.541 393.84C198.266 388.371 189.909 381.478 182.776 373.413C174.584 364.254 168.019 353.761 163.365 342.388C163.077 341.684 164.221 341.373 164.507 342.073Z" fill="black"/>
<path d="M200.216 388.42C197.812 391.321 194.455 393.273 190.744 393.927C187.034 394.581 183.212 393.895 179.96 391.992C179.304 391.604 179.875 390.566 180.532 390.954C183.557 392.732 187.117 393.371 190.571 392.754C194.025 392.138 197.145 390.307 199.367 387.593C199.851 387.003 200.697 387.834 200.216 388.42Z" fill="black"/>
<path d="M231.292 398.014C230.642 390.339 227.124 383.192 221.439 377.996C220.875 377.482 221.703 376.634 222.266 377.148C228.172 382.565 231.818 390.011 232.477 397.999C232.539 398.76 231.354 398.771 231.292 398.014Z" fill="black"/>
<path d="M176.074 363.757C177.239 362.829 178.154 361.626 178.738 360.256C179.322 358.886 179.557 357.393 179.421 355.91C179.349 355.15 180.535 355.14 180.606 355.895C180.748 357.534 180.487 359.183 179.845 360.698C179.203 362.212 178.2 363.547 176.923 364.585C176.811 364.692 176.662 364.754 176.506 364.756C176.35 364.758 176.2 364.7 176.085 364.595C175.973 364.485 175.91 364.335 175.908 364.178C175.906 364.022 175.966 363.87 176.074 363.757Z" fill="black"/>
<path d="M240.771 293.267C240.829 293.74 240.887 294.213 240.954 294.692C241.772 301.052 243.105 307.336 244.941 313.481C245.075 313.958 245.218 314.44 245.366 314.912C249.945 329.669 257.225 343.448 266.834 355.548C270.662 360.359 274.851 364.872 279.364 369.048C285.597 374.814 292.813 380.571 296.664 387.845C297.074 388.6 297.437 389.379 297.751 390.178L278.535 429.571C278.447 429.639 278.367 429.711 278.278 429.779L277.583 431.387C277.335 431.188 277.082 430.976 276.834 430.777C276.69 430.662 276.55 430.539 276.406 430.424C276.311 430.344 276.217 430.265 276.127 430.198C276.095 430.172 276.063 430.145 276.041 430.123C275.951 430.057 275.874 429.986 275.793 429.924C274.377 428.744 272.967 427.552 271.563 426.348C271.554 426.343 271.554 426.343 271.549 426.33C260.873 417.128 250.871 406.953 242.732 395.584C242.487 395.242 242.233 394.896 241.997 394.535C238.356 389.39 235.143 383.956 232.387 378.288C230.889 375.179 229.548 371.996 228.372 368.752C225.347 360.363 223.661 351.551 223.375 342.638C222.807 324.87 227.928 307.118 239.85 294.242C240.155 293.912 240.456 293.591 240.771 293.267Z" fill="#F0F0F0"/>
<path d="M241.227 293.599C235.555 315.115 236.806 337.873 244.803 358.638C246.446 363.139 248.787 367.352 251.741 371.124C254.738 374.705 258.639 377.419 263.039 378.982C267.113 380.522 271.458 381.626 275.086 384.13C276.924 385.439 278.464 387.122 279.606 389.068C280.748 391.014 281.466 393.18 281.712 395.423C282.471 400.996 281.183 406.51 279.735 411.858C278.128 417.796 276.365 423.938 277.546 430.125C277.689 430.874 276.518 431.052 276.375 430.304C274.32 419.541 280.712 409.579 280.754 398.921C280.773 393.948 279.294 388.939 275.277 385.745C271.763 382.952 267.284 381.81 263.146 380.286C258.831 378.824 254.94 376.327 251.813 373.015C248.676 369.406 246.176 365.289 244.42 360.841C240.308 350.891 237.785 340.355 236.945 329.621C235.918 317.376 236.994 305.045 240.125 293.162C240.32 292.427 241.42 292.868 241.227 293.599Z" fill="black"/>
<path d="M241.835 352.103C238.168 352.972 234.313 352.509 230.956 350.798C227.6 349.086 224.961 346.237 223.511 342.76C223.22 342.055 224.302 341.57 224.593 342.276C225.937 345.516 228.395 348.17 231.524 349.757C234.653 351.344 238.246 351.761 241.655 350.932C242.396 350.752 242.571 351.925 241.835 352.103Z" fill="black"/>
<path d="M260.871 378.473C264.973 371.955 266.467 364.13 265.056 356.558C264.915 355.808 266.087 355.63 266.227 356.379C267.681 364.261 266.11 372.401 261.826 379.175C261.418 379.82 260.465 379.115 260.871 378.473Z" fill="black"/>
<path d="M237.407 317.877C238.896 317.837 240.351 317.427 241.642 316.685C242.933 315.943 244.02 314.892 244.804 313.627C245.205 312.976 246.157 313.682 245.759 314.328C244.886 315.722 243.685 316.882 242.26 317.704C240.835 318.527 239.231 318.989 237.587 319.049C237.432 319.067 237.276 319.026 237.151 318.934C237.026 318.842 236.94 318.706 236.911 318.553C236.888 318.398 236.928 318.24 237.021 318.113C237.113 317.987 237.252 317.902 237.407 317.877Z" fill="black"/>
<path d="M886.838 409.814C909.361 395.136 925.738 368.752 922.386 342.078C902.105 363.135 875.03 376.34 845.951 379.356C834.732 380.478 822.138 380.559 814.17 388.537C809.213 393.501 807.107 400.756 806.998 407.771C806.89 414.785 808.576 421.69 810.25 428.503L809.839 430.205C836.704 429.212 864.315 424.492 886.838 409.814Z" fill="#F0F0F0"/>
<path d="M921.822 342.073C913.397 362.668 898.696 380.085 879.809 391.85C875.788 394.455 871.381 396.41 866.751 397.642C862.202 398.697 857.454 398.515 852.999 397.114C848.82 395.892 844.686 394.157 840.282 393.972C838.026 393.911 835.783 394.327 833.699 395.193C831.616 396.06 829.739 397.357 828.191 398.999C824.23 402.992 821.939 408.17 819.875 413.312C817.583 419.021 815.293 424.987 810.625 429.215C810.06 429.727 810.888 430.575 811.453 430.063C819.573 422.707 820.467 410.904 826.851 402.37C829.829 398.387 834.026 395.278 839.157 395.147C843.643 395.032 847.907 396.817 852.129 398.091C856.454 399.522 861.064 399.871 865.556 399.109C870.233 398.116 874.708 396.334 878.788 393.84C888.062 388.371 896.419 381.478 903.553 373.413C911.745 364.254 918.31 353.761 922.964 342.388C923.252 341.684 922.108 341.373 921.822 342.073Z" fill="black"/>
<path d="M886.113 388.42C888.517 391.321 891.874 393.273 895.585 393.927C899.295 394.581 903.117 393.895 906.369 391.992C907.025 391.604 906.454 390.566 905.797 390.954C902.772 392.732 899.212 393.371 895.758 392.754C892.304 392.138 889.184 390.307 886.962 387.593C886.478 387.003 885.632 387.834 886.113 388.42Z" fill="black"/>
<path d="M855.037 398.014C855.687 390.339 859.205 383.192 864.89 377.996C865.454 377.482 864.626 376.634 864.063 377.148C858.157 382.565 854.511 390.011 853.852 397.999C853.79 398.76 854.975 398.771 855.037 398.014Z" fill="black"/>
<path d="M910.254 363.757C909.09 362.829 908.175 361.626 907.591 360.256C907.007 358.886 906.772 357.393 906.908 355.91C906.979 355.15 905.794 355.14 905.723 355.895C905.581 357.534 905.842 359.183 906.484 360.698C907.126 362.212 908.129 363.547 909.406 364.585C909.518 364.692 909.667 364.754 909.823 364.756C909.978 364.758 910.129 364.7 910.244 364.595C910.356 364.485 910.419 364.335 910.421 364.178C910.423 364.022 910.363 363.87 910.254 363.757Z" fill="black"/>
<path d="M845.558 293.267C845.5 293.74 845.442 294.213 845.375 294.692C844.557 301.052 843.224 307.336 841.388 313.481C841.254 313.958 841.111 314.44 840.963 314.912C836.384 329.669 829.104 343.448 819.495 355.548C815.667 360.359 811.478 364.872 806.965 369.048C800.732 374.814 793.516 380.571 789.665 387.845C789.255 388.6 788.892 389.379 788.578 390.178L807.794 429.571C807.882 429.639 807.962 429.711 808.051 429.779L808.746 431.387C808.994 431.188 809.247 430.976 809.495 430.777C809.639 430.662 809.779 430.539 809.923 430.424C810.018 430.344 810.112 430.265 810.203 430.198C810.234 430.172 810.266 430.145 810.288 430.123C810.378 430.057 810.455 429.986 810.536 429.924C811.952 428.744 813.362 427.552 814.766 426.348C814.775 426.343 814.775 426.343 814.78 426.33C825.456 417.128 835.458 406.953 843.597 395.584C843.842 395.242 844.096 394.896 844.332 394.535C847.973 389.39 851.187 383.956 853.942 378.288C855.44 375.179 856.781 371.996 857.957 368.752C860.982 360.363 862.668 351.551 862.954 342.638C863.522 324.87 858.401 307.118 846.479 294.242C846.174 293.912 845.873 293.591 845.558 293.267Z" fill="#F0F0F0"/>
<path d="M845.102 293.599C850.774 315.115 849.523 337.873 841.526 358.638C839.883 363.139 837.542 367.352 834.587 371.124C831.591 374.705 827.69 377.419 823.29 378.982C819.216 380.522 814.871 381.626 811.243 384.13C809.405 385.439 807.865 387.122 806.723 389.068C805.581 391.014 804.863 393.18 804.617 395.423C803.857 400.996 805.146 406.51 806.593 411.858C808.201 417.796 809.964 423.938 808.783 430.125C808.64 430.874 809.811 431.052 809.954 430.304C812.009 419.541 805.617 409.579 805.575 398.921C805.556 393.948 807.035 388.939 811.052 385.745C814.565 382.952 819.045 381.81 823.183 380.286C827.497 378.824 831.388 376.327 834.516 373.015C837.653 369.406 840.153 365.289 841.909 360.841C846.021 350.891 848.544 340.355 849.384 329.621C850.41 317.376 849.335 305.045 846.203 293.162C846.009 292.427 844.909 292.868 845.102 293.599Z" fill="black"/>
<path d="M844.494 352.103C848.16 352.972 852.016 352.509 855.372 350.798C858.729 349.086 861.368 346.237 862.818 342.76C863.109 342.055 862.027 341.57 861.736 342.276C860.392 345.516 857.934 348.17 854.805 349.757C851.676 351.344 848.083 351.761 844.674 350.932C843.933 350.752 843.758 351.925 844.494 352.103Z" fill="black"/>
<path d="M825.458 378.473C821.356 371.955 819.862 364.13 821.273 356.558C821.413 355.808 820.242 355.63 820.102 356.379C818.648 364.261 820.219 372.401 824.503 379.175C824.911 379.82 825.864 379.115 825.458 378.473Z" fill="black"/>
<path d="M848.922 317.877C847.433 317.837 845.978 317.427 844.687 316.685C843.396 315.943 842.309 314.892 841.525 313.627C841.124 312.976 840.172 313.682 840.57 314.328C841.443 315.722 842.644 316.882 844.069 317.704C845.494 318.527 847.098 318.989 848.742 319.049C848.897 319.067 849.053 319.026 849.178 318.934C849.304 318.842 849.389 318.706 849.418 318.553C849.441 318.398 849.401 318.24 849.309 318.113C849.216 317.987 849.077 317.902 848.922 317.877Z" fill="black"/>
<path d="M243.852 280.375C243 279.862 242.27 279.168 241.715 278.343C241.16 277.518 240.792 276.581 240.639 275.598C240.485 274.616 240.548 273.611 240.824 272.656C241.101 271.7 241.583 270.817 242.238 270.068L230.257 249.069L242.794 249.879L252.249 269.696C253.434 270.879 254.144 272.456 254.245 274.127C254.345 275.799 253.829 277.449 252.793 278.765C251.758 280.082 250.276 280.972 248.628 281.269C246.98 281.566 245.281 281.247 243.852 280.375Z" fill="#FFB6B6"/>
<path d="M151.623 423.528H159.918L163.864 391.535L151.622 391.536L151.623 423.528Z" fill="#FFB6B6"/>
<path d="M149.508 420.82L165.842 420.819C168.603 420.819 171.251 421.916 173.204 423.868C175.156 425.821 176.253 428.468 176.253 431.229V431.567L149.508 431.568L149.508 420.82Z" fill="#68676C"/>
<path d="M208.454 423.528H216.748L220.694 391.535L208.452 391.536L208.454 423.528Z" fill="#FFB6B6"/>
<path d="M206.338 420.82L222.673 420.819C225.433 420.819 228.082 421.916 230.034 423.868C231.986 425.821 233.083 428.468 233.083 431.229V431.567L206.338 431.568L206.338 420.82Z" fill="#68676C"/>
<path d="M229.782 249.972C229.782 249.972 232.063 282.461 227.57 298.823C223.077 315.185 222.274 414.134 222.274 414.134H207.213L194.159 279.443L164.065 414.609L149.719 413.623L157.586 254.348L229.782 249.972Z" fill="#68676C"/>
<path d="M163.81 140.454L175.324 132.052L194.618 136.253L199.84 148.662L208.839 153.124C211.798 154.591 214.357 156.755 216.295 159.429C218.233 162.103 219.493 165.208 219.966 168.477L232.823 257.257L157.586 254.348L148.478 149.792C148.383 148.7 148.508 147.6 148.846 146.557C149.183 145.514 149.727 144.549 150.444 143.72C151.161 142.891 152.037 142.214 153.02 141.729C154.003 141.244 155.074 140.962 156.169 140.898L163.81 140.454Z" fill="#E6E6E6"/>
<path d="M213.6 160.059L220.549 169.426L250.815 261.738L236.628 267.418L213.911 224.403L213.6 160.059Z" fill="#E6E6E6"/>
<path d="M188.411 127.665C197.692 127.665 205.215 120.141 205.215 110.861C205.215 101.58 197.692 94.0566 188.411 94.0566C179.13 94.0566 171.607 101.58 171.607 110.861C171.607 120.141 179.13 127.665 188.411 127.665Z" fill="#FFB9B9"/>
<path opacity="0.1" d="M151.778 179.997L179.2 218.137L209.852 238.125L151.778 179.997Z" fill="black"/>
<path d="M179.505 123.009C178.337 120.676 177.134 118.135 177.581 115.564C178.028 112.992 180.979 110.752 183.256 112.026C184.201 108.611 188.384 107.117 191.906 107.511C195.427 107.905 198.669 109.604 202.137 110.333C205.604 111.062 209.815 110.484 211.689 107.477L207.205 107.399L211.875 101.983L206.462 101.578C208.337 99.5548 207.839 96.1171 206.024 94.0399C204.209 91.9627 201.454 90.9798 198.767 90.3583C193.402 89.1216 187.841 88.9938 182.424 89.9827C179.871 90.3763 177.41 91.2326 175.164 92.5093C173.048 93.7996 171.3 95.6123 170.088 97.7733C168.78 100.211 168.073 102.926 168.025 105.693C167.946 109.398 168.797 113.064 170.502 116.355C172.206 119.647 174.71 122.457 177.783 124.529" fill="#68676C"/>
<path d="M805.173 432H283.684C278.314 431.994 273.165 429.858 269.368 426.061C265.57 422.263 263.434 417.115 263.428 411.744V20.2559C263.434 14.8855 265.57 9.73681 269.368 5.93942C273.165 2.14203 278.314 0.00602914 283.684 0H805.173C810.543 0.00612447 815.692 2.14218 819.489 5.93956C823.286 9.73694 825.422 14.8856 825.429 20.2559V411.744C825.422 417.114 823.286 422.263 819.489 426.06C815.692 429.858 810.543 431.994 805.173 432Z" fill="#DDF0FF"/>
<path d="M673.925 179.75H593.424C589.446 179.75 585.631 178.17 582.818 175.357C580.005 172.544 578.424 168.728 578.424 164.75C578.424 160.772 580.005 156.956 582.818 154.143C585.631 151.33 589.446 149.75 593.424 149.75H673.925C677.903 149.75 681.718 151.33 684.531 154.143C687.344 156.956 688.925 160.772 688.925 164.75C688.925 168.728 687.344 172.544 684.531 175.357C681.718 178.17 677.903 179.75 673.925 179.75Z" fill="black"/>
<path d="M603.424 220.75H584.424C582.966 220.75 581.567 220.171 580.535 219.139C579.504 218.108 578.924 216.709 578.924 215.25C578.924 213.791 579.504 212.392 580.535 211.361C581.567 210.329 582.966 209.75 584.424 209.75H603.424C604.883 209.75 606.282 210.329 607.313 211.361C608.345 212.392 608.924 213.791 608.924 215.25C608.924 216.709 608.345 218.108 607.313 219.139C606.282 220.171 604.883 220.75 603.424 220.75Z" fill="black"/>
<path d="M682.424 220.75H663.424C661.966 220.75 660.567 220.171 659.535 219.139C658.504 218.108 657.924 216.709 657.924 215.25C657.924 213.791 658.504 212.392 659.535 211.361C660.567 210.329 661.966 209.75 663.424 209.75H682.424C683.883 209.75 685.282 210.329 686.313 211.361C687.345 212.392 687.924 213.791 687.924 215.25C687.924 216.709 687.345 218.108 686.313 219.139C685.282 220.171 683.883 220.75 682.424 220.75Z" fill="black"/>
<path d="M642.424 220.75H623.424C621.966 220.75 620.567 220.171 619.535 219.139C618.504 218.108 617.924 216.709 617.924 215.25C617.924 213.791 618.504 212.392 619.535 211.361C620.567 210.329 621.966 209.75 623.424 209.75H642.424C643.883 209.75 645.282 210.329 646.313 211.361C647.345 212.392 647.924 213.791 647.924 215.25C647.924 216.709 647.345 218.108 646.313 219.139C645.282 220.171 643.883 220.75 642.424 220.75Z" fill="black"/>
<path d="M603.424 241.75H584.424C582.966 241.75 581.567 241.171 580.535 240.139C579.504 239.108 578.924 237.709 578.924 236.25C578.924 234.791 579.504 233.392 580.535 232.361C581.567 231.329 582.966 230.75 584.424 230.75H603.424C604.883 230.75 606.282 231.329 607.313 232.361C608.345 233.392 608.924 234.791 608.924 236.25C608.924 237.709 608.345 239.108 607.313 240.139C606.282 241.171 604.883 241.75 603.424 241.75Z" fill="black"/>
<path d="M682.424 241.75H663.424C661.966 241.75 660.567 241.171 659.535 240.139C658.504 239.108 657.924 237.709 657.924 236.25C657.924 234.791 658.504 233.392 659.535 232.361C660.567 231.329 661.966 230.75 663.424 230.75H682.424C683.883 230.75 685.282 231.329 686.313 232.361C687.345 233.392 687.924 234.791 687.924 236.25C687.924 237.709 687.345 239.108 686.313 240.139C685.282 241.171 683.883 241.75 682.424 241.75Z" fill="black"/>
<path d="M642.424 241.75H623.424C621.966 241.75 620.567 241.171 619.535 240.139C618.504 239.108 617.924 237.709 617.924 236.25C617.924 234.791 618.504 233.392 619.535 232.361C620.567 231.329 621.966 230.75 623.424 230.75H642.424C643.883 230.75 645.282 231.329 646.313 232.361C647.345 233.392 647.924 234.791 647.924 236.25C647.924 237.709 647.345 239.108 646.313 240.139C645.282 241.171 643.883 241.75 642.424 241.75Z" fill="black"/>
<path d="M603.424 262.75H584.424C582.966 262.75 581.567 262.171 580.535 261.139C579.504 260.108 578.924 258.709 578.924 257.25C578.924 255.791 579.504 254.392 580.535 253.361C581.567 252.329 582.966 251.75 584.424 251.75H603.424C604.883 251.75 606.282 252.329 607.313 253.361C608.345 254.392 608.924 255.791 608.924 257.25C608.924 258.709 608.345 260.108 607.313 261.139C606.282 262.171 604.883 262.75 603.424 262.75Z" fill="black"/>
<path d="M682.424 262.75H663.424C661.966 262.75 660.567 262.171 659.535 261.139C658.504 260.108 657.924 258.709 657.924 257.25C657.924 255.791 658.504 254.392 659.535 253.361C660.567 252.329 661.966 251.75 663.424 251.75H682.424C683.883 251.75 685.282 252.329 686.313 253.361C687.345 254.392 687.924 255.791 687.924 257.25C687.924 258.709 687.345 260.108 686.313 261.139C685.282 262.171 683.883 262.75 682.424 262.75Z" fill="black"/>
<path d="M642.424 262.75H623.424C621.966 262.75 620.567 262.171 619.535 261.139C618.504 260.108 617.924 258.709 617.924 257.25C617.924 255.791 618.504 254.392 619.535 253.361C620.567 252.329 621.966 251.75 623.424 251.75H642.424C643.883 251.75 645.282 252.329 646.313 253.361C647.345 254.392 647.924 255.791 647.924 257.25C647.924 258.709 647.345 260.108 646.313 261.139C645.282 262.171 643.883 262.75 642.424 262.75Z" fill="black"/>
<path d="M603.424 283.75H584.424C582.966 283.75 581.567 283.171 580.535 282.139C579.504 281.108 578.924 279.709 578.924 278.25C578.924 276.791 579.504 275.392 580.535 274.361C581.567 273.329 582.966 272.75 584.424 272.75H603.424C604.883 272.75 606.282 273.329 607.313 274.361C608.345 275.392 608.924 276.791 608.924 278.25C608.924 279.709 608.345 281.108 607.313 282.139C606.282 283.171 604.883 283.75 603.424 283.75Z" fill="black"/>
<path d="M682.424 283.75H663.424C661.966 283.75 660.567 283.171 659.535 282.139C658.504 281.108 657.924 279.709 657.924 278.25C657.924 276.791 658.504 275.392 659.535 274.361C660.567 273.329 661.966 272.75 663.424 272.75H682.424C683.883 272.75 685.282 273.329 686.313 274.361C687.345 275.392 687.924 276.791 687.924 278.25C687.924 279.709 687.345 281.108 686.313 282.139C685.282 283.171 683.883 283.75 682.424 283.75Z" fill="black"/>
<path d="M642.424 283.75H623.424C621.966 283.75 620.567 283.171 619.535 282.139C618.504 281.108 617.924 279.709 617.924 278.25C617.924 276.791 618.504 275.392 619.535 274.361C620.567 273.329 621.966 272.75 623.424 272.75H642.424C643.883 272.75 645.282 273.329 646.313 274.361C647.345 275.392 647.924 276.791 647.924 278.25C647.924 279.709 647.345 281.108 646.313 282.139C645.282 283.171 643.883 283.75 642.424 283.75Z" fill="black"/>
<path d="M474.924 261.75C503.091 261.75 525.924 238.917 525.924 210.75C525.924 182.583 503.091 159.75 474.924 159.75C446.758 159.75 423.924 182.583 423.924 210.75C423.924 238.917 446.758 261.75 474.924 261.75Z" fill="#E6E6E6"/>
<path d="M474.924 273.249C470.947 273.245 467.135 271.663 464.323 268.851C461.511 266.039 459.929 262.226 459.924 258.249V163.249C459.923 161.279 460.31 159.327 461.063 157.505C461.816 155.684 462.92 154.029 464.313 152.635C465.706 151.241 467.361 150.135 469.181 149.38C471.002 148.626 472.953 148.237 474.924 148.237C476.895 148.237 478.847 148.626 480.667 149.38C482.488 150.135 484.142 151.241 485.535 152.635C486.928 154.029 488.033 155.684 488.786 157.505C489.539 159.327 489.926 161.279 489.924 163.249V258.249C489.92 262.226 488.338 266.039 485.526 268.851C482.714 271.663 478.901 273.245 474.924 273.249Z" fill="black"/>
<path d="M608.161 173.309H594.161C593.63 173.309 593.121 173.098 592.746 172.723C592.371 172.348 592.161 171.839 592.161 171.309C592.161 170.778 592.371 170.269 592.746 169.894C593.121 169.519 593.63 169.309 594.161 169.309H608.161C608.691 169.309 609.2 169.519 609.575 169.894C609.95 170.269 610.161 170.778 610.161 171.309C610.161 171.839 609.95 172.348 609.575 172.723C609.2 173.098 608.691 173.309 608.161 173.309Z" fill="#DDF0FF"/>
<path d="M630.161 173.809H616.161C615.63 173.809 615.121 173.598 614.746 173.223C614.371 172.848 614.161 172.339 614.161 171.809C614.161 171.278 614.371 170.769 614.746 170.394C615.121 170.019 615.63 169.809 616.161 169.809H630.161C630.691 169.809 631.2 170.019 631.575 170.394C631.95 170.769 632.161 171.278 632.161 171.809C632.161 172.339 631.95 172.848 631.575 173.223C631.2 173.598 630.691 173.809 630.161 173.809Z" fill="#DDF0FF"/>
<path d="M652.161 174.309H638.161C637.63 174.309 637.121 174.098 636.746 173.723C636.371 173.348 636.161 172.839 636.161 172.309C636.161 171.778 636.371 171.269 636.746 170.894C637.121 170.519 637.63 170.309 638.161 170.309H652.161C652.691 170.309 653.2 170.519 653.575 170.894C653.95 171.269 654.161 171.778 654.161 172.309C654.161 172.839 653.95 173.348 653.575 173.723C653.2 174.098 652.691 174.309 652.161 174.309Z" fill="#DDF0FF"/>
<path d="M674.161 174.809H660.161C659.63 174.809 659.121 174.598 658.746 174.223C658.371 173.848 658.161 173.339 658.161 172.809C658.161 172.278 658.371 171.769 658.746 171.394C659.121 171.019 659.63 170.809 660.161 170.809H674.161C674.691 170.809 675.2 171.019 675.575 171.394C675.95 171.769 676.161 172.278 676.161 172.809C676.161 173.339 675.95 173.848 675.575 174.223C675.2 174.598 674.691 174.809 674.161 174.809Z" fill="#DDF0FF"/>
<path d="M329.924 370.249C329.923 372.725 330.414 375.177 331.369 377.462C332.323 379.746 333.722 381.819 335.484 383.559H327.224C324.786 383.559 322.373 383.079 320.121 382.146C317.87 381.213 315.824 379.846 314.1 378.123C312.377 376.399 311.01 374.353 310.077 372.102C309.145 369.85 308.665 367.437 308.665 365V64.1176C308.665 61.6804 309.145 59.2671 310.077 57.0154C311.01 54.7637 312.377 52.7178 314.1 50.9944C315.824 49.271 317.87 47.904 320.121 46.9713C322.373 46.0386 324.786 45.5586 327.224 45.5586H339.245C336.41 47.2075 334.057 49.5713 332.421 52.4141C330.786 55.2568 329.925 58.479 329.924 61.7586L329.924 370.249Z" fill="black"/>
<path d="M327.924 133.479C321.604 131.709 315.261 130.069 308.894 128.559C287.123 123.362 265.051 119.515 242.804 117.039C239.034 116.046 235.023 116.583 231.646 118.533C228.27 120.482 225.8 123.687 224.774 127.449L213.664 168.449C212.644 172.228 213.165 176.258 215.113 179.653C217.061 183.049 220.277 185.532 224.054 186.559L224.204 186.589C238.905 188.259 253.744 190.579 268.504 193.539C269.825 193.799 271.135 194.069 272.454 194.349C277.184 195.329 281.901 196.376 286.604 197.489C288.664 197.969 290.714 198.469 292.774 198.979C298.314 200.359 303.858 201.829 309.405 203.389C315.575 205.129 321.748 206.986 327.924 208.959C328.595 209.159 329.264 209.369 329.924 209.589V134.049C329.264 133.849 328.595 133.659 327.924 133.479Z" fill="black"/>
<path d="M327.924 133.479C321.604 131.709 315.261 130.069 308.894 128.559C287.123 123.362 265.051 119.515 242.804 117.039C239.034 116.046 235.023 116.583 231.646 118.533C228.27 120.482 225.8 123.687 224.774 127.449L213.664 168.449C212.644 172.228 213.165 176.258 215.113 179.653C217.061 183.049 220.277 185.532 224.054 186.559L224.204 186.589C238.905 188.259 253.744 190.579 268.504 193.539C269.825 193.799 271.135 194.069 272.454 194.349C277.184 195.329 281.901 196.376 286.604 197.489C288.664 197.969 290.714 198.469 292.774 198.979C298.314 200.359 303.858 201.829 309.405 203.389C315.575 205.129 321.748 206.986 327.924 208.959C328.595 209.159 329.264 209.369 329.924 209.589V207.479C329.254 207.269 328.584 207.059 327.924 206.849C322.244 205.039 316.571 203.336 310.905 201.739C308.784 201.129 306.664 200.539 304.544 199.969C300.724 198.939 296.915 197.953 293.115 197.009C291.095 196.499 289.078 196.009 287.064 195.539C286.914 195.499 286.754 195.469 286.604 195.429C283.174 194.619 279.737 193.846 276.294 193.109C274.974 192.829 273.655 192.549 272.334 192.279C256.414 188.979 240.374 186.409 224.504 184.609C221.258 183.705 218.501 181.556 216.832 178.628C215.163 175.701 214.718 172.233 215.594 168.979L226.704 127.969C227.593 124.706 229.74 121.929 232.674 120.247C235.608 118.566 239.09 118.117 242.354 118.999L242.504 119.019C264.468 121.458 286.262 125.238 307.764 130.339C307.984 130.399 308.204 130.449 308.424 130.499C314.945 132.059 321.445 133.746 327.924 135.559C328.584 135.739 329.254 135.929 329.924 136.129V134.049C329.264 133.849 328.595 133.659 327.924 133.479Z" fill="#008BFD"/>
<path d="M329.924 135.089V208.529C329.254 208.309 328.595 208.099 327.924 207.889C322.015 205.999 316.085 204.219 310.135 202.549C304.424 200.929 298.694 199.406 292.945 197.979C290.905 197.479 288.874 196.989 286.834 196.509C286.754 196.149 286.674 195.789 286.604 195.429C286.234 193.709 285.945 191.969 285.725 190.219C285.624 189.549 285.555 188.879 285.484 188.199C284.432 177.486 285.899 166.675 289.767 156.629C293.636 146.583 299.799 137.58 307.765 130.339C308.055 130.059 308.354 129.789 308.655 129.529C315.115 131.069 321.538 132.736 327.924 134.529C328.595 134.699 329.265 134.889 329.924 135.089Z" fill="#008BFD"/>
<path d="M263.514 165.159L235.704 161.879C234.726 161.763 233.735 161.842 232.786 162.109C231.838 162.377 230.952 162.829 230.179 163.439C229.405 164.049 228.759 164.805 228.278 165.665C227.797 166.525 227.49 167.471 227.375 168.449C227.259 169.427 227.337 170.419 227.605 171.367C227.873 172.315 228.324 173.201 228.934 173.975C229.545 174.748 230.301 175.394 231.161 175.875C232.02 176.356 232.966 176.663 233.945 176.779L261.754 180.059C263.728 180.287 265.711 179.723 267.269 178.491C268.827 177.259 269.833 175.46 270.066 173.487C270.299 171.514 269.74 169.53 268.512 167.968C267.284 166.407 265.487 165.397 263.514 165.159ZM268.095 173.259C267.92 174.706 267.179 176.025 266.034 176.927C264.888 177.829 263.432 178.239 261.984 178.069L234.174 174.789C232.73 174.613 231.414 173.872 230.516 172.728C229.617 171.584 229.208 170.131 229.378 168.686C229.549 167.241 230.285 165.923 231.426 165.02C232.567 164.117 234.019 163.703 235.464 163.869L263.274 167.149C264.722 167.324 266.041 168.065 266.944 169.21C267.848 170.355 268.261 171.81 268.095 173.259Z" fill="#008BFD"/>
<path d="M329.924 152.288V187.118C329.282 187.504 328.614 187.845 327.924 188.138C324.335 189.741 320.356 190.26 316.476 189.631C312.596 189.002 308.984 187.253 306.084 184.598C305.805 184.348 305.524 184.078 305.254 183.798C304.984 183.528 304.725 183.238 304.475 182.948C301.456 179.481 299.711 175.087 299.529 170.493C299.347 165.9 300.738 161.381 303.472 157.686C306.207 153.99 310.121 151.339 314.568 150.17C319.014 149.001 323.726 149.385 327.924 151.258C328.609 151.566 329.277 151.909 329.924 152.288Z" fill="black"/>
<path d="M327.924 177.499C320.055 179.139 312.238 180.955 304.475 182.949C301.575 183.689 298.685 184.455 295.805 185.249C292.365 186.199 288.925 187.182 285.484 188.199C281.095 189.499 276.711 190.859 272.334 192.279C271.064 192.699 269.785 193.119 268.504 193.539C256.334 197.599 244.245 202.099 232.354 207.009C228.571 207.955 225.314 210.357 223.293 213.692C221.272 217.028 220.651 221.027 221.564 224.819L231.595 266.099C232.523 269.901 234.921 273.179 238.264 275.215C241.606 277.251 245.62 277.878 249.424 276.959L249.564 276.909C269.117 268.889 289.129 262.037 309.495 256.389C315.575 254.699 321.718 253.106 327.924 251.609C328.595 251.449 329.254 251.289 329.924 251.139V177.089C329.254 177.209 328.595 177.349 327.924 177.499Z" fill="black"/>
<path d="M327.924 177.499C320.055 179.139 312.238 180.955 304.475 182.949C301.575 183.689 298.685 184.455 295.805 185.249C292.365 186.199 288.925 187.182 285.484 188.199C281.095 189.499 276.711 190.859 272.334 192.279C271.064 192.699 269.785 193.119 268.504 193.539C256.334 197.599 244.245 202.099 232.354 207.009C228.571 207.955 225.314 210.357 223.293 213.692C221.272 217.028 220.651 221.027 221.564 224.819L231.595 266.099C232.523 269.901 234.921 273.179 238.264 275.215C241.606 277.251 245.62 277.878 249.424 276.959L249.564 276.909C269.117 268.889 289.129 262.037 309.495 256.389C315.575 254.699 321.718 253.106 327.924 251.609C328.595 251.449 329.254 251.289 329.924 251.139V249.079C329.254 249.239 328.595 249.399 327.924 249.559C327.424 249.679 326.915 249.799 326.415 249.919C320.535 251.349 314.718 252.862 308.964 254.459C308.814 254.499 308.655 254.549 308.504 254.589C288.242 260.224 268.331 267.053 248.874 275.039C245.594 275.808 242.142 275.251 239.269 273.489C236.397 271.727 234.336 268.902 233.535 265.629L223.515 224.349C222.719 221.062 223.26 217.593 225.019 214.705C226.777 211.816 229.609 209.742 232.894 208.939L233.044 208.889C245.995 203.529 259.174 198.669 272.455 194.349C273.734 193.929 275.015 193.519 276.294 193.109C279.434 192.119 282.578 191.156 285.725 190.219C289.044 189.229 292.361 188.276 295.674 187.359C295.894 187.299 296.115 187.239 296.334 187.179C299.575 186.289 302.825 185.429 306.084 184.599C313.314 182.759 320.594 181.069 327.924 179.529C328.584 179.389 329.254 179.249 329.924 179.119V177.089C329.254 177.209 328.595 177.349 327.924 177.499Z" fill="#008BFD"/>
<path d="M329.924 178.099V250.109C329.264 250.259 328.595 250.409 327.924 250.569C321.664 252.089 315.431 253.709 309.224 255.429C308.974 255.149 308.734 254.869 308.504 254.589C302.025 247.004 297.264 238.106 294.548 228.507C291.833 218.907 291.228 208.834 292.774 198.979C292.825 198.649 292.885 198.309 292.945 197.979C292.994 197.659 293.054 197.329 293.115 197.009C293.732 193.734 294.587 190.509 295.674 187.359C295.804 186.979 295.934 186.599 296.075 186.219C299.124 185.379 302.184 184.572 305.254 183.799C312.764 181.859 320.321 180.095 327.924 178.509C328.584 178.359 329.254 178.229 329.924 178.099Z" fill="#008BFD"/>
<path d="M283.454 243.329C282.705 241.487 281.255 240.018 279.423 239.244C277.592 238.47 275.528 238.454 273.684 239.199L247.734 249.719C245.894 250.469 244.427 251.919 243.654 253.75C242.882 255.581 242.868 257.643 243.615 259.485C244.362 261.326 245.81 262.796 247.639 263.571C249.469 264.346 251.532 264.363 253.374 263.619L279.325 253.099C281.165 252.347 282.633 250.898 283.406 249.067C284.18 247.236 284.198 245.173 283.454 243.329ZM278.575 251.239L252.624 261.769C251.272 262.316 249.758 262.303 248.415 261.735C247.072 261.166 246.01 260.088 245.461 258.736C244.913 257.385 244.923 255.871 245.49 254.527C246.057 253.183 247.134 252.119 248.484 251.569L274.434 241.049C275.786 240.5 277.3 240.51 278.643 241.078C279.987 241.645 281.051 242.723 281.6 244.074C282.149 245.425 282.138 246.939 281.571 248.283C281.004 249.627 279.926 250.69 278.575 251.239Z" fill="#008BFD"/>
<path d="M329.924 196.489V235.699C329.265 235.867 328.597 236 327.924 236.099C323.909 236.661 319.818 236.003 316.182 234.21C312.547 232.417 309.534 229.572 307.537 226.044C305.539 222.516 304.65 218.469 304.983 214.429C305.316 210.388 306.856 206.542 309.405 203.389C309.635 203.099 309.874 202.819 310.135 202.549C310.374 202.269 310.635 201.999 310.905 201.739C313.116 199.552 315.802 197.905 318.754 196.927C321.706 195.948 324.845 195.665 327.924 196.099C328.598 196.189 329.266 196.319 329.924 196.489Z" fill="black"/>
<path d="M327.924 128.269V228.079C328.595 227.859 329.265 227.649 329.924 227.449V129.179C329.254 128.869 328.595 128.569 327.924 128.269ZM327.924 128.269V228.079C328.595 227.859 329.265 227.649 329.924 227.449V129.179C329.254 128.869 328.595 128.569 327.924 128.269ZM327.924 128.269V228.079C328.595 227.859 329.265 227.649 329.924 227.449V129.179C329.254 128.869 328.595 128.569 327.924 128.269ZM327.924 135.559V250.569C328.595 250.409 329.265 250.259 329.924 250.109V136.129C329.254 135.929 328.584 135.739 327.924 135.559ZM327.924 135.559V250.569C328.595 250.409 329.265 250.259 329.924 250.109V136.129C329.254 135.929 328.584 135.739 327.924 135.559ZM327.924 135.559V250.569C328.595 250.409 329.265 250.259 329.924 250.109V136.129C329.254 135.929 328.584 135.739 327.924 135.559ZM327.924 135.559V250.569C328.595 250.409 329.265 250.259 329.924 250.109V136.129C329.254 135.929 328.584 135.739 327.924 135.559ZM327.924 135.559V251.609C328.595 251.449 329.254 251.289 329.924 251.139V136.129C329.254 135.929 328.584 135.739 327.924 135.559ZM764.174 40.9991H348.685C343.181 41.0082 337.906 43.1983 334.015 47.0896C330.124 50.9808 327.934 56.2559 327.924 61.759V370.249C327.934 375.751 330.124 381.025 334.016 384.915C337.907 388.804 343.182 390.992 348.685 390.999H764.174C769.676 390.992 774.949 388.804 778.839 384.914C782.729 381.024 784.918 375.75 784.924 370.249V61.759C784.92 56.2563 782.732 50.9801 778.842 47.0881C774.952 43.1961 769.677 41.0063 764.174 40.9991ZM782.924 370.249C782.919 375.22 780.942 379.986 777.427 383.502C773.912 387.017 769.146 388.994 764.174 388.999H348.685C343.712 388.994 338.945 387.018 335.428 383.503C331.911 379.988 329.932 375.221 329.924 370.249V61.759C329.932 56.7858 331.911 52.0185 335.427 48.5019C338.944 44.9854 343.711 43.0065 348.685 42.9991H764.174C769.147 43.0048 773.914 44.9834 777.43 48.5006C780.945 52.0179 782.921 56.7862 782.924 61.759V370.249ZM327.924 135.559V249.559C328.595 249.399 329.254 249.239 329.924 249.079V136.129C329.254 135.929 328.584 135.739 327.924 135.559ZM327.924 135.559V250.569C328.595 250.409 329.265 250.259 329.924 250.109V136.129C329.254 135.929 328.584 135.739 327.924 135.559ZM327.924 135.559V250.569C328.595 250.409 329.265 250.259 329.924 250.109V136.129C329.254 135.929 328.584 135.739 327.924 135.559ZM327.924 135.559V250.569C328.595 250.409 329.265 250.259 329.924 250.109V136.129C329.254 135.929 328.584 135.739 327.924 135.559ZM327.924 128.269V228.079C328.595 227.859 329.265 227.649 329.924 227.449V129.179C329.254 128.869 328.595 128.569 327.924 128.269ZM327.924 128.269V228.079C328.595 227.859 329.265 227.649 329.924 227.449V129.179C329.254 128.869 328.595 128.569 327.924 128.269Z" fill="#68676C"/>
<path d="M238.85 233.874C238.458 232.96 237.871 232.143 237.129 231.481C236.387 230.818 235.509 230.326 234.556 230.04C233.604 229.754 232.6 229.68 231.616 229.823C230.632 229.967 229.691 230.324 228.86 230.871L209.689 216.141L208.783 228.671L227.127 240.738C228.138 242.074 229.603 242.992 231.245 243.319C232.887 243.646 234.593 243.359 236.038 242.513C237.483 241.667 238.567 240.32 239.086 238.728C239.604 237.136 239.52 235.409 238.85 233.874Z" fill="#FFB6B6"/>
<path d="M161.599 144.976L155.291 141.995C155.291 141.995 145.128 144.854 150.066 158.292L179.945 213.956L216.424 235.313L227.796 225.236L191.291 196.352L161.599 144.976Z" fill="#E6E6E6"/>
</svg>
