<svg width="878" height="551" viewBox="0 0 878 551" fill="none" xmlns="http://www.w3.org/2000/svg">
<path d="M317.721 388.25C316.697 388.251 315.715 388.659 314.991 389.383C314.267 390.107 313.86 391.089 313.859 392.113V546.428C313.86 547.452 314.267 548.434 314.991 549.158C315.715 549.882 316.697 550.29 317.721 550.291H343.917C344.941 550.29 345.923 549.882 346.647 549.158C347.372 548.434 347.779 547.452 347.78 546.428V392.113C347.779 391.089 347.372 390.107 346.647 389.383C345.923 388.659 344.941 388.251 343.917 388.25H317.721Z" fill="#3F3D56"/>
<path d="M535.56 388.25C534.536 388.251 533.554 388.659 532.83 389.383C532.106 390.107 531.698 391.089 531.697 392.113V546.428C531.698 547.452 532.106 548.434 532.83 549.158C533.554 549.882 534.536 550.29 535.56 550.291H561.756C562.78 550.29 563.762 549.882 564.486 549.158C565.21 548.434 565.618 547.452 565.619 546.428V392.113C565.618 391.089 565.21 390.107 564.486 389.383C563.762 388.659 562.78 388.251 561.756 388.25H535.56Z" fill="#3F3D56"/>
<path d="M657.946 265.647L457.092 250.14L617.332 277.462L655.731 270.816L657.946 265.647Z" fill="#3F3D56"/>
<path d="M618.809 275.031L657.208 268.385L657.585 267.505L659.423 267.647L657.208 272.816L618.809 279.462L458.569 250.14L506.056 255.806L618.809 275.031Z" fill="#008BFD"/>
<path d="M203.07 265.647L2.21509 250.14L162.456 277.462L200.855 270.816L203.07 265.647Z" fill="#3F3D56"/>
<path d="M160.241 275.031L198.639 268.385L199.017 267.505L200.855 267.647L198.639 272.816L160.241 279.462L0 250.14L47.487 255.806L160.241 275.031Z" fill="#008BFD"/>
<path d="M691.914 346.137L674.93 346.875L519.335 412.522L510.429 419.98L482.199 443.61H393.586L366.899 419.98L356.753 410.994L207.501 347.614L194.209 346.137L238.515 324.722H238.751C248.794 315.189 335.767 307.738 441.585 307.738C547.403 307.738 634.375 315.189 644.418 324.722H645.393L691.914 346.137Z" fill="#3F3D56"/>
<path d="M237.298 325.816C237.613 324.931 237.775 323.998 237.776 323.059V287.986C237.776 285.782 236.901 283.669 235.343 282.111C233.785 280.552 231.671 279.677 229.468 279.677H226.094C228.864 276.881 230.745 273.329 231.499 269.466C232.254 265.603 231.848 261.604 230.334 257.972C228.819 254.339 226.264 251.236 222.989 249.053C219.714 246.871 215.867 245.706 211.931 245.706C207.996 245.706 204.148 246.871 200.873 249.053C197.599 251.236 195.043 254.339 193.529 257.972C192.014 261.604 191.609 265.603 192.363 269.466C193.118 273.329 194.998 276.881 197.768 279.677H194.395C193.304 279.677 192.223 279.892 191.215 280.309C190.207 280.727 189.291 281.339 188.52 282.111C187.748 282.882 187.136 283.798 186.718 284.806C186.301 285.814 186.086 286.895 186.086 287.986V323.059C186.085 324.495 186.459 325.906 187.171 327.154C184.663 327.593 182.155 328.071 179.647 328.622C178.12 328.964 176.754 329.816 175.777 331.039C174.799 332.262 174.268 333.781 174.271 335.347V343.679C174.271 345.506 174.997 347.258 176.288 348.55C177.58 349.841 179.332 350.567 181.158 350.567H259.191V329.891C251.986 328.076 244.674 326.715 237.298 325.816Z" fill="#3F3D56"/>
<path d="M699.092 328.622C696.584 328.071 694.076 327.593 691.568 327.154C692.28 325.906 692.653 324.495 692.653 323.059V287.986C692.653 286.895 692.438 285.814 692.021 284.806C691.603 283.798 690.991 282.882 690.219 282.111C689.448 281.339 688.532 280.727 687.524 280.309C686.516 279.892 685.435 279.677 684.344 279.677H680.971C683.741 276.881 685.621 273.329 686.376 269.466C687.13 265.604 686.725 261.604 685.21 257.972C683.696 254.339 681.14 251.236 677.865 249.053C674.591 246.871 670.743 245.706 666.808 245.706C662.872 245.706 659.025 246.871 655.75 249.053C652.475 251.236 649.92 254.339 648.405 257.972C646.891 261.604 646.485 265.604 647.24 269.466C647.994 273.329 649.875 276.881 652.645 279.677H649.271C648.18 279.677 647.1 279.892 646.092 280.309C645.084 280.727 644.168 281.339 643.396 282.111C642.625 282.882 642.013 283.798 641.595 284.806C641.177 285.814 640.962 286.895 640.962 287.986V323.059C640.964 323.998 641.126 324.931 641.441 325.816C634.065 326.715 626.753 328.076 619.548 329.891V350.567H697.581C699.407 350.567 701.159 349.841 702.451 348.55C703.742 347.258 704.468 345.506 704.468 343.68V335.347C704.471 333.781 703.94 332.262 702.962 331.039C701.985 329.816 700.619 328.964 699.092 328.622Z" fill="#3F3D56"/>
<path d="M675.669 265.647L876.523 250.14L716.283 277.462L677.884 270.816L675.669 265.647Z" fill="#3F3D56"/>
<path d="M453.472 436.964H422.313C421.159 436.964 420.016 437.191 418.949 437.633C417.883 438.075 416.914 438.722 416.098 439.538C415.282 440.354 414.635 441.323 414.193 442.389C413.752 443.455 413.524 444.598 413.524 445.752V452.544C413.525 454.328 414.069 456.069 415.084 457.536C416.099 459.003 417.537 460.127 419.206 460.757C417.918 462.303 417.214 464.253 417.216 466.266V468.214C417.216 469.602 417.552 470.971 418.195 472.202C418.837 473.433 419.769 474.49 420.909 475.283V501.208H454.877V475.283C456.016 474.49 456.948 473.433 457.591 472.202C458.233 470.971 458.569 469.602 458.569 468.214V466.266C458.571 464.253 457.867 462.303 456.579 460.757C458.248 460.127 459.686 459.003 460.701 457.536C461.716 456.069 462.26 454.328 462.261 452.544V445.752C462.261 444.598 462.034 443.455 461.592 442.389C461.15 441.323 460.503 440.354 459.687 439.538C458.871 438.722 457.902 438.075 456.836 437.633C455.769 437.191 454.627 436.964 453.472 436.964Z" fill="#3F3D56"/>
<path d="M406.227 497.539C404.84 497.541 403.51 498.092 402.529 499.073C401.548 500.054 400.996 501.384 400.994 502.771V544.688C400.995 546.076 401.547 547.406 402.528 548.387C403.509 549.368 404.839 549.92 406.227 549.922H469.558C470.946 549.92 472.276 549.368 473.257 548.387C474.238 547.406 474.789 546.076 474.791 544.688V502.771C474.789 501.384 474.237 500.054 473.256 499.073C472.275 498.093 470.946 497.541 469.558 497.539H406.227Z" fill="#008BFD"/>
<path d="M510.429 419.98L482.199 443.61H393.587L366.899 419.98H393.439L394.598 414.198C394.938 412.497 395.857 410.967 397.197 409.867C398.538 408.767 400.219 408.166 401.953 408.165H476.048C477.782 408.166 479.462 408.767 480.803 409.867C482.144 410.967 483.063 412.497 483.402 414.198L484.562 419.98H510.429Z" fill="#008BFD"/>
<path d="M437.893 544.406C449.312 544.406 458.569 535.149 458.569 523.73C458.569 512.311 449.312 503.054 437.893 503.054C426.473 503.054 417.216 512.311 417.216 523.73C417.216 535.149 426.473 544.406 437.893 544.406Z" fill="#3F3D56"/>
<path d="M437.893 535.545C444.418 535.545 449.708 530.255 449.708 523.73C449.708 517.205 444.418 511.915 437.893 511.915C431.367 511.915 426.078 517.205 426.078 523.73C426.078 530.255 431.367 535.545 437.893 535.545Z" fill="#F1F1F1"/>
<path d="M445.034 514.334C446.767 516.605 447.617 519.428 447.426 522.279C447.236 525.13 446.017 527.814 443.997 529.835C441.976 531.855 439.292 533.074 436.441 533.264C433.591 533.455 430.768 532.605 428.496 530.872C429.515 532.216 430.809 533.326 432.293 534.127C433.776 534.928 435.414 535.403 437.097 535.518C438.779 535.633 440.466 535.387 442.045 534.795C443.624 534.203 445.058 533.28 446.25 532.088C447.442 530.896 448.365 529.462 448.957 527.883C449.549 526.304 449.795 524.617 449.68 522.934C449.565 521.252 449.09 519.614 448.289 518.131C447.488 516.647 446.378 515.353 445.034 514.334Z" fill="white"/>
<path d="M704.836 337.431H174.64V340.813H704.836V337.431Z" fill="#F1F1F1"/>
<path d="M717.76 275.031L679.361 268.385L678.984 267.505L677.146 267.647L679.361 272.816L717.76 279.462L878 250.14L830.513 255.806L717.76 275.031Z" fill="#008BFD"/>
<path d="M220.792 265.647L421.647 250.14L261.406 277.462L223.008 270.816L220.792 265.647Z" fill="#3F3D56"/>
<path d="M263.622 275.031L225.223 268.385L224.846 267.505L223.008 267.647L225.223 272.816L263.622 279.462L423.862 250.14L376.375 255.806L263.622 275.031Z" fill="#008BFD"/>
<path d="M468.538 414.441H409.463V426.256H468.538V414.441Z" fill="#F1F1F1"/>
<path d="M249.036 0H69.9648C63.6112 0.00717005 57.5199 2.53429 53.0273 7.02696C48.5346 11.5196 46.0074 17.6109 46.0002 23.9645V119.035C46.0074 125.389 48.5346 131.48 53.0273 135.973C57.5199 140.466 63.6112 142.993 69.9648 143H249.036C255.389 142.993 261.481 140.466 265.973 135.973C270.466 131.48 272.993 125.389 273 119.035V23.9645C272.993 17.611 270.466 11.5197 265.973 7.02699C261.481 2.53432 255.389 0.00718593 249.036 0Z" fill="#F1F1F1"/>
<path d="M69.9646 19.5C68.781 19.5012 67.6462 19.972 66.8092 20.809C65.9722 21.6459 65.5015 22.7807 65.5002 23.9644V119.036C65.5015 120.219 65.9722 121.354 66.8092 122.191C67.6462 123.028 68.781 123.499 69.9646 123.5H249.036C250.22 123.499 251.354 123.028 252.191 122.191C253.028 121.354 253.499 120.219 253.5 119.036V23.9644C253.499 22.7807 253.028 21.6459 252.191 20.809C251.354 19.972 250.22 19.5013 249.036 19.5H69.9646Z" fill="white"/>
<path d="M159.5 115.684C183.902 115.684 203.684 95.9017 203.684 71.4995C203.684 47.0973 183.902 27.3154 159.5 27.3154C135.098 27.3154 115.316 47.0973 115.316 71.4995C115.316 95.9017 135.098 115.684 159.5 115.684Z" fill="#008BFD"/>
<path d="M179.9 54.1841C179.235 53.55 178.352 53.1963 177.433 53.1963C176.515 53.1963 175.632 53.55 174.967 54.1841C165.592 61.6613 157.171 70.2625 149.894 79.7942C148.107 76.3376 146.321 72.881 144.535 69.4243C142.473 65.4345 136.451 68.9591 138.511 72.9455C141.124 78.0013 143.737 83.0572 146.35 88.113C146.665 88.6292 147.107 89.0556 147.635 89.3516C148.162 89.6475 148.757 89.8029 149.362 89.8029C149.966 89.8029 150.561 89.6475 151.088 89.3516C151.616 89.0556 152.058 88.6292 152.374 88.113C160.128 77.1917 169.396 67.4287 179.9 59.1172C180.549 58.4603 180.913 57.5741 180.913 56.6507C180.913 55.7272 180.549 54.841 179.9 54.1841Z" fill="white"/>
<path d="M527.036 0H347.965C341.611 0.00718593 335.52 2.53432 331.027 7.02699C326.535 11.5197 324.007 17.611 324 23.9645V119.035C324.007 125.389 326.535 131.48 331.027 135.973C335.52 140.466 341.611 142.993 347.965 143H527.036C533.389 142.993 539.481 140.466 543.973 135.973C548.466 131.48 550.993 125.389 551 119.035V23.9645C550.993 17.6109 548.466 11.5196 543.973 7.02698C539.481 2.53431 533.389 0.00718065 527.036 0Z" fill="#F1F1F1"/>
<path d="M347.965 19.5C346.781 19.5012 345.646 19.972 344.809 20.809C343.972 21.6459 343.501 22.7807 343.5 23.9644V119.036C343.501 120.219 343.972 121.354 344.809 122.191C345.646 123.028 346.781 123.499 347.965 123.5H527.036C528.22 123.499 529.354 123.028 530.191 122.191C531.028 121.354 531.499 120.219 531.5 119.036V23.9644C531.499 22.7807 531.028 21.6459 530.191 20.809C529.354 19.972 528.22 19.5013 527.036 19.5H347.965Z" fill="white"/>
<path d="M437.5 76.6174C450.545 76.6174 461.121 66.042 461.121 52.9967C461.121 39.9513 450.545 29.376 437.5 29.376C424.455 29.376 413.879 39.9513 413.879 52.9967C413.879 66.042 424.455 76.6174 437.5 76.6174Z" fill="#008BFD"/>
<path d="M437.5 80.5547C445.853 80.5547 453.864 83.8728 459.77 89.7791C465.676 95.6854 468.994 103.696 468.994 112.049V113.624H406.006V112.049C406.006 103.696 409.324 95.6854 415.23 89.7791C421.137 83.8728 429.147 80.5547 437.5 80.5547Z" fill="#008BFD"/>
<path d="M389.471 88.4283C398.603 88.4283 406.006 81.0256 406.006 71.8939C406.006 62.7621 398.603 55.3594 389.471 55.3594C380.34 55.3594 372.937 62.7621 372.937 71.8939C372.937 81.0256 380.34 88.4283 389.471 88.4283Z" fill="#3F3D56"/>
<path d="M405.665 96.0254C402.487 93.2075 398.563 91.3678 394.364 90.7275C390.165 90.0872 385.871 90.6737 381.998 92.4164C378.124 94.159 374.837 96.9837 372.531 100.55C370.225 104.117 368.999 108.274 369 112.522V113.624H401.282V112.049C401.275 106.411 402.789 100.875 405.665 96.0254Z" fill="#3F3D56"/>
<path d="M485.529 88.4283C494.661 88.4283 502.063 81.0256 502.063 71.8939C502.063 62.7621 494.661 55.3594 485.529 55.3594C476.397 55.3594 468.994 62.7621 468.994 71.8939C468.994 81.0256 476.397 88.4283 485.529 88.4283Z" fill="#3F3D56"/>
<path d="M469.336 96.0254C472.514 93.2075 476.438 91.3678 480.636 90.7275C484.835 90.0872 489.129 90.6737 493.003 92.4164C496.876 94.159 500.163 96.9837 502.469 100.55C504.775 104.117 506.001 108.274 506 112.522V113.624H473.719V112.049C473.726 106.411 472.211 100.875 469.336 96.0254Z" fill="#3F3D56"/>
<path d="M805.036 0H625.965C619.611 0.00716741 613.52 2.53429 609.027 7.02696C604.535 11.5196 602.007 17.6109 602 23.9645V119.035C602.007 125.389 604.535 131.48 609.027 135.973C613.52 140.466 619.611 142.993 625.965 143H805.036C811.389 142.993 817.481 140.466 821.973 135.973C826.466 131.48 828.993 125.389 829 119.035V23.9645C828.993 17.6109 826.466 11.5196 821.973 7.02698C817.481 2.53431 811.389 0.00718065 805.036 0Z" fill="#F1F1F1"/>
<path d="M625.965 19.5C624.781 19.5012 623.646 19.972 622.809 20.809C621.972 21.6459 621.501 22.7807 621.5 23.9644V119.036C621.501 120.219 621.972 121.354 622.809 122.191C623.646 123.028 624.781 123.499 625.965 123.5H805.036C806.22 123.499 807.354 123.028 808.191 122.191C809.028 121.354 809.499 120.219 809.5 119.036V23.9644C809.499 22.7807 809.028 21.6459 808.191 20.809C807.354 19.972 806.22 19.5013 805.036 19.5H625.965Z" fill="white"/>
<path d="M689.243 60.5015C695.415 33.3666 735.616 33.398 741.758 60.5328C745.361 76.4502 735.46 89.9236 726.78 98.2584C720.482 104.337 710.518 104.337 704.189 98.2584C695.541 89.9236 685.639 76.4189 689.243 60.5015Z" stroke="#008BFD" stroke-width="6"/>
<path d="M706.883 69.933L711.583 74.633L724.117 62.0996" stroke="#008BFD" stroke-width="6" stroke-linecap="round" stroke-linejoin="round"/>
</svg>
